<svg width="503" height="345" viewBox="0 0 503 345" fill="none" xmlns="http://www.w3.org/2000/svg">
<path d="M222.639 7.03619C79.1202 -26.6042 31.381 69.7244 11.8187 99.0936C-5.77377 125.508 -2.93325 163.254 15.0843 187.968C39.5915 221.578 77.6481 211.201 125.74 248.5C168.13 281.384 156.405 303.31 186.852 324.095C243.631 362.857 373.725 347.618 444.655 277.393C517.388 205.385 521.234 79.6455 454.752 42.2419C410.62 17.4341 389.887 46.2332 222.639 7.03619Z" fill="#DFF2FE"/>
<path d="M421.609 292.217C421.35 289.885 421.029 287.5 419.95 285.417C418.634 282.887 416.322 281.052 414.301 279.041C410.527 275.278 407.614 270.644 405.872 265.606C404.525 261.708 403.851 257.551 401.995 253.87C400.855 251.621 399.31 249.61 398.025 247.453C394.977 242.343 393.318 236.299 389.182 232.017C388.383 237.201 389.959 242.705 393.37 246.686C394.386 247.878 395.568 248.946 396.345 250.304C397.755 252.772 397.62 255.778 397.786 258.618C398.097 263.947 399.6 269.203 402.151 273.899C404.867 278.875 408.775 283.312 410.226 288.796C411.315 292.902 410.994 297.515 413.305 301.071C413.554 301.454 413.844 301.848 413.907 302.304C413.938 302.563 413.896 302.823 413.865 303.071C413.813 303.403 413.761 303.735 413.71 304.067C413.181 307.426 412.642 311.707 415.524 314.226C417.525 315.968 420.106 316.009 421.547 313.697C422.998 311.365 422.864 307.954 422.76 305.321C422.573 300.957 422.107 296.571 421.609 292.217Z" fill="#2368A0"/>
<path d="M426.813 289.522C425.694 285.624 423.942 281.923 423.071 277.963C422.221 274.127 422.221 270.157 422.211 266.228C422.211 261.925 422.2 257.613 422.2 253.3C422.2 250.615 422.2 247.92 421.754 245.276C420.801 239.585 417.846 234.329 417.338 228.575C417.12 226.087 417.369 223.579 417.1 221.101C416.944 219.681 416.581 218.24 415.928 216.985C415.223 215.638 413.274 215.689 412.632 217.079C411.191 220.189 410.289 223.558 410.869 226.886C411.222 228.886 412.082 230.752 412.735 232.681C415.617 241.254 414.083 250.74 416.312 259.5C416.986 262.143 418.002 264.735 418.116 267.461C418.396 273.992 413.523 279.953 413.969 286.464C414.332 291.803 418.178 296.229 419.785 301.34C420.687 304.201 420.884 307.249 421.848 310.09C422.594 312.298 424.346 314.973 427.062 314.299C429.644 313.666 428.856 311.562 428.742 309.551C428.368 302.75 428.731 296.157 426.813 289.522Z" fill="#00AAE7"/>
<path d="M432.712 293.088C432.598 291.067 432.256 289.035 432.536 287.024C432.774 285.334 433.448 283.737 433.935 282.089C434.837 279.01 435.065 275.786 435.283 272.583C435.677 266.767 436.081 260.951 436.475 255.135C437.097 246.095 437.709 237.035 439.399 228.13C439.865 225.662 440.394 222.977 439.284 220.728C439.046 220.251 438.59 219.743 438.082 219.909C437.719 220.023 437.543 220.417 437.418 220.769C433.728 230.804 432.328 241.617 428.202 251.486C427.217 253.85 426.067 256.172 425.559 258.691C424.947 261.708 425.279 264.818 425.362 267.897C425.476 272.313 425.051 276.761 423.828 281.001C423.195 283.219 422.335 285.386 421.982 287.677C421.547 290.528 421.91 293.42 422.19 296.292C422.718 301.807 422.895 307.343 422.718 312.879C422.615 316.134 425.362 316.051 427.186 314.05C428.462 312.65 428.451 311.116 428.887 309.375C430.317 303.662 433.064 299.277 432.712 293.088Z" fill="#2368A0"/>
<path d="M415.555 301.91C413.129 298.012 408.288 295.794 406.733 291.461C406.339 290.362 406.183 289.18 405.696 288.112C404.628 285.748 402.192 284.411 399.797 283.323C399.466 283.167 399.082 283.416 399.082 283.779C399.072 284.359 399.352 284.919 399.828 285.24C401.674 286.484 403.073 288.382 403.706 290.517C404.442 293.057 404.12 295.835 405.043 298.313C405.81 300.397 407.407 302.087 408.153 304.181C408.837 306.088 408.765 308.172 409.086 310.173C409.407 312.173 410.299 314.299 412.134 315.149C418.789 318.207 417.131 304.429 415.555 301.91Z" fill="#00AAE7"/>
<path d="M443.224 300.614C443.12 302.501 443.411 304.481 442.675 306.213C442.198 307.322 441.348 308.224 440.653 309.209C438.207 312.671 437.315 317.575 433.552 319.534C433.303 319.658 433.023 319.783 432.754 319.731C432.37 319.658 432.111 319.285 431.955 318.922C431.033 316.776 432.069 314.351 432.681 312.091C432.785 311.697 432.878 311.251 432.691 310.888C432.484 310.484 432.007 310.318 431.686 309.996C431.043 309.374 431.105 308.338 431.23 307.446C431.551 305.228 431.997 303.02 432.567 300.853C432.888 299.619 433.272 298.386 433.977 297.328C434.754 296.167 435.884 295.296 436.952 294.384C441.638 290.351 445.225 285.054 447.236 279.207C447.671 277.942 448.055 276.605 448.957 275.61C449.859 274.614 451.455 274.106 452.554 274.874C453.332 275.423 450.149 280.555 449.776 281.166C448.718 282.929 448.698 284.453 448.096 286.402C446.635 291.212 443.504 295.493 443.224 300.614Z" fill="#2368A0"/>
<path d="M439.513 302.802C440.207 300.998 440.912 299.184 441.14 297.266C441.399 295.141 441.057 292.953 441.42 290.839C441.887 288.122 443.473 285.728 444.261 283.084C444.831 281.177 444.966 279.166 445.308 277.206C446.282 271.598 448.915 266.114 448.159 260.464C447.993 259.24 447.443 257.8 446.22 257.592C445.121 257.406 444.115 258.411 443.825 259.5C443.535 260.588 443.753 261.729 443.836 262.848C444.053 265.969 443.162 269.151 441.358 271.712C439.627 274.169 437.108 276.014 435.553 278.575C433.635 281.726 433.375 285.562 432.401 289.118C430.462 296.188 425.59 302.346 424.698 309.623C424.346 312.516 425.02 316.04 427.694 317.191C435.428 320.55 437.761 307.332 439.513 302.802Z" fill="#00AAE7"/>
<path d="M426.005 311.769H424.771H408.267C407.054 311.769 406.163 312.899 406.443 314.081L412.912 341.346C413.108 342.196 413.865 342.797 414.736 342.797H424.771H426.005H436.04C436.911 342.797 437.667 342.196 437.864 341.346L444.333 314.081C444.613 312.899 443.722 311.769 442.509 311.769H426.005Z" fill="#0D416B"/>
<path d="M41.1985 329.776H41.0637C40.2654 329.776 39.6331 329.123 39.6434 328.325L41.7894 235.21L48.1131 234.474L42.712 328.335C42.6809 329.144 42.0071 329.776 41.1985 329.776Z" fill="#2368A0"/>
<path d="M142.959 329.776H143.094C143.892 329.776 144.525 329.123 144.514 328.325L142.368 235.21L136.045 234.474L141.446 328.335C141.477 329.144 142.151 329.776 142.959 329.776Z" fill="#2368A0"/>
<path d="M37.0103 229.446V165.638C37.0103 154.411 46.1123 145.309 57.3396 145.309H103.306C114.533 145.309 123.635 154.411 123.635 165.638V231.882L37.0103 229.446Z" fill="#2368A0"/>
<path d="M131.867 239.523H45.6147C40.8667 239.523 37.0103 235.666 37.0103 230.918V229.446H131.877V239.523H131.867Z" fill="#2368A0"/>
<path d="M142.721 239.523H75.1499C72.7759 239.523 70.8477 237.595 70.8477 235.221V233.749C70.8477 231.375 72.7759 229.446 75.1499 229.446H142.721C145.095 229.446 147.023 231.375 147.023 233.749V235.221C147.023 237.595 145.095 239.523 142.721 239.523Z" fill="#2368A0"/>
<path d="M139.901 213.544C133.318 225.009 125.035 229.426 125.035 229.426H90.5757C90.5757 229.436 144.919 204.804 139.901 213.544Z" fill="#0A3150"/>
<path d="M113.435 302.232C112.533 303.258 112.419 304.409 112.864 305.642C112.864 305.642 112.864 305.653 112.875 305.663C113.694 307.934 116.41 310.473 119.561 313.003C119.966 313.324 120.318 313.625 120.64 313.894C120.722 313.967 120.805 314.04 120.878 314.112C120.94 314.164 121.002 314.226 121.065 314.278C124.009 316.994 122.9 317.606 128.187 323.111C134.21 329.383 138.356 329.497 139.538 328.926C140.534 328.439 138.512 325.111 136.262 321.379C136.148 321.203 136.045 321.016 135.931 320.83C135.63 320.332 135.329 319.824 135.039 319.327C132.406 314.827 133.08 312.723 133.702 306.026C134.21 300.583 142.161 275.641 142.161 275.641L130.612 273.65C130.612 273.65 127.14 293.513 123.304 296.571C121.251 298.199 118.96 298.22 116.99 299.433C116.856 299.516 116.711 299.599 116.586 299.692C115.477 300.428 114.337 301.195 113.435 302.232Z" fill="#FFAE90"/>
<path d="M113.435 302.232C112.533 303.258 112.419 304.409 112.864 305.642C112.864 305.642 112.864 305.653 112.875 305.663C113.88 307.934 116.524 310.453 119.572 312.982C119.966 313.314 120.318 313.615 120.64 313.905C120.722 313.977 120.805 314.05 120.878 314.123C120.94 314.174 121.002 314.237 121.065 314.288C124.009 317.005 122.9 317.616 128.187 323.121C134.21 329.393 138.356 329.507 139.538 328.937C140.534 328.45 138.512 325.122 136.262 321.39C135.091 320.965 129.638 318.746 125.522 313.48C121.894 308.846 119.478 302.906 117.001 299.453C116.866 299.536 116.721 299.619 116.596 299.713C115.477 300.428 114.337 301.195 113.435 302.232Z" fill="#00AAE7"/>
<path d="M206.529 295.017C207.244 298.583 212.324 297.981 217.994 296.603C223.675 295.213 222.317 296.862 230.403 295.97C238.479 295.079 240.926 292.062 241.175 290.859C241.392 289.792 237.401 289.418 233.12 288.921C232.58 288.859 232.041 288.796 231.502 288.724C226.671 288.112 223.126 285.002 218.741 282.442C214.584 280.016 208.374 270.126 208.374 270.126L197.292 271.007C197.292 271.007 203.108 279.839 205.357 283.675C206.684 285.935 206.612 288.921 206.446 291.222C206.363 292.477 206.28 293.762 206.529 295.017Z" fill="#FFAE90"/>
<path d="M218.005 296.603C223.686 295.213 222.328 296.862 230.414 295.97C238.49 295.079 240.936 292.062 241.185 290.859C241.403 289.792 237.411 289.418 233.13 288.921L233.088 289.004C233.088 289.004 228.247 292.435 221.519 292.601C216.035 292.736 210.23 291.16 206.446 291.222C206.363 292.477 206.28 293.752 206.529 295.016C207.244 298.583 212.324 297.981 218.005 296.603Z" fill="#00AAE7"/>
<path d="M164.077 224.18L153.72 252.046L140.202 288.434C140.202 288.434 136.532 288.786 133.018 287.78C129.783 286.847 126.072 284.401 126.072 284.401C126.072 284.401 129.825 245.328 136.833 222.905C138.626 217.151 140.637 212.496 142.856 209.874C153.71 197.04 164.077 224.18 164.077 224.18Z" fill="#0A3150"/>
<path d="M153.554 179.924C146.774 177.737 127.419 180.546 107.982 184.351L103.907 177.633L61.9217 174.357C61.9217 174.357 48.0716 205.084 55.6498 224.657C56.7694 227.539 58.9775 229.384 62.751 229.436H63.3627C63.3627 229.436 88.3467 229.426 96.464 229.426C117.343 229.426 140.658 215.067 143.664 214.466C148.599 213.481 150.579 223.351 155.513 233.717C160.448 244.084 201.905 279.622 201.905 279.622C201.905 279.622 208.281 279.684 210.914 278.699C213.744 277.642 214.781 276.263 214.781 276.263C214.781 276.263 168.845 184.859 153.554 179.924Z" fill="#0D416B"/>
<path d="M102.259 55.3871C96.8786 52.5673 88.6992 52.1837 87.3722 51.9971C71.4591 49.8616 61.8906 72.9796 61.3204 79.9876C60.2837 92.8943 53.452 94.864 43.8419 102.95C24.5596 119.164 30.2199 138 40.763 145.008C47.0867 149.207 58.2311 145.008 58.2311 145.008C58.3866 145.122 88.7199 128.048 103.669 119.817C126.072 116.634 115.964 62.5817 102.259 55.3871Z" fill="#232527"/>
<path d="M91.125 112.809C91.1872 112.85 83.7646 115.39 78.8092 113.193C74.1441 111.13 70.5987 103.448 70.6713 103.448C72.7965 103.354 75.129 101.488 76.9225 89.3074L77.8244 89.6287L93.0325 95.1024C93.0325 95.1024 91.9336 99.9852 91.2183 104.63C90.617 108.527 90.2957 112.26 91.125 112.809Z" fill="#FFAE90"/>
<path d="M95.303 99.9438C95.303 99.9438 74.4968 97.1551 76.4354 84.2173C78.374 71.2899 76.9952 62.2189 90.358 63.4525C103.721 64.6862 105.556 70.0044 105.96 74.4828C106.364 78.9613 100.756 100.338 95.303 99.9438Z" fill="#FFAE90"/>
<path d="M105.203 67.4024C105.203 67.4024 91.8817 78.8784 82.8211 79.8011C73.7605 80.7237 70.3291 77.821 70.3291 77.821C70.3291 77.821 75.668 73.384 78.8817 66.2309C79.8251 64.1264 81.8259 62.6751 84.1377 62.4781C90.6066 61.9183 102.871 61.6591 105.203 67.4024Z" fill="#232527"/>
<path d="M96.8787 66.376C96.8787 66.376 101.336 70.6886 102.736 73.8816C104.094 76.9606 104.498 84.3417 103.42 87.2652C103.42 87.2652 110.366 73.7676 106.437 67.2054C102.259 60.2492 96.8787 66.376 96.8787 66.376Z" fill="#232527"/>
<path d="M108.645 143.453C108.013 185.563 108.469 176.762 103.866 180.764C102.757 181.728 99.6363 182.298 95.5311 182.567C82.614 183.428 59.921 181.292 59.0502 178.908C56.0749 170.646 58.1794 168.085 55.6913 155.448C55.4322 154.1 55.1108 152.649 54.7376 151.063C52.6642 142.375 50.6531 139.421 58.0031 125.477C64.669 112.84 71.5941 102.587 72.2161 102.961C89.8086 113.4 91.2185 104.63 91.2185 104.63C91.2185 104.63 108.956 122.917 108.645 143.453Z" fill="#00AAE7"/>
<path d="M153.72 252.046L140.202 288.434C140.202 288.434 136.532 288.786 133.018 287.78C129.783 286.847 126.072 284.401 126.072 284.401C126.072 284.401 129.825 245.328 136.833 222.905L153.72 252.046Z" fill="#0D416B"/>
<path d="M91.2185 104.619C91.2185 104.619 109.319 107.688 111.444 115.484C113.569 123.279 126.072 169.08 126.072 169.08C126.072 169.08 116.876 170.728 112.626 166.478C108.376 162.228 97.8325 127.043 97.8325 127.043L91.2185 104.619Z" fill="#00AAE7"/>
<path d="M95.5309 182.578C82.6138 183.438 59.9208 181.303 59.05 178.918C56.0747 170.656 58.1792 168.095 55.6912 155.458L61.9216 137.917C61.9216 137.917 60.8953 157.449 66.6489 162.58C72.4025 167.722 90.2334 172.501 93.0325 176.793C94.3802 178.846 95.2717 180.919 95.5309 182.578Z" fill="#118FC6"/>
<path d="M80.7375 174.357C80.7375 174.357 93.4784 171.516 95.531 172.646C97.5837 173.776 102.612 177.892 103.244 179.323C103.876 180.753 98.6722 178.234 96.972 177.778C95.8731 177.488 92.9911 178.483 91.5605 178.96C85.5478 180.961 81.8675 179.934 81.8675 179.934L80.7375 174.357Z" fill="#FFAE90"/>
<path d="M72.2056 102.95C72.2056 102.95 55.1003 104.008 49.1809 112.26C40.8459 123.891 24.3109 173.434 33.7861 180.048C44.464 187.492 82.3651 181.997 82.3651 181.997C82.3651 181.997 83.6299 176.099 81.8675 173.248C80.1155 170.397 51.5964 165.794 50.2798 164.477C48.9632 163.161 66.7319 138.809 66.7319 134.859C66.7216 130.91 72.2056 102.95 72.2056 102.95Z" fill="#00AAE7"/>
<path d="M96.1426 176.202C96.1426 176.202 98.8069 179.644 99.688 180.059C100.559 180.473 101.129 180.37 101.129 180.37L99.3252 177.135L96.1426 176.202Z" fill="#FFAE90"/>
<path d="M95.531 172.657L103.296 176.43C103.296 176.43 102.964 176.969 102.01 176.928C101.057 176.886 98.6411 176.005 98.6411 176.005L95.531 172.657Z" fill="#FFAE90"/>
<path d="M99.6882 185.325H161.081L179.554 139.4H118.255L99.6882 185.325Z" fill="#155C8C"/>
<path d="M161.806 183.542H80.7375V185.325H161.08L161.806 183.542Z" fill="#155C8C"/>
<path d="M145.582 162.362C146.049 160.745 145.116 159.439 143.498 159.439C141.881 159.439 140.202 160.745 139.735 162.362C139.269 163.98 140.202 165.286 141.819 165.286C143.436 165.286 145.126 163.98 145.582 162.362Z" fill="white"/>
<path d="M294.211 331.062H294.388C295.435 331.062 296.285 330.108 296.264 328.947L293.423 193.09L285.057 192.012L292.19 328.957C292.252 330.139 293.144 331.062 294.211 331.062Z" fill="#2368A0"/>
<path d="M82.7693 331.062H82.5931C81.546 331.062 80.6959 330.108 80.7167 328.947L83.5572 193.09L91.9232 192.012L84.7908 328.957C84.7286 330.139 83.8371 331.062 82.7693 331.062Z" fill="#2368A0"/>
<path d="M307.191 195.049H72.9417C70.6506 195.049 68.7949 193.193 68.7949 190.902V189.482C68.7949 187.191 70.6506 185.335 72.9417 185.335H307.201C309.492 185.335 311.348 187.191 311.348 189.482V190.902C311.348 193.193 309.482 195.049 307.191 195.049Z" fill="#2368A0"/>
<path d="M397.558 33.8552V129.406C397.558 135.906 392.282 141.183 385.782 141.183H217.714C211.214 141.183 205.938 135.906 205.938 129.406V33.8552C205.938 33.5753 205.948 33.2954 205.969 33.0259C206.394 26.9094 211.484 22.0681 217.714 22.0681H385.771C391.991 22.0681 397.092 26.8991 397.517 33.0259C397.538 33.2954 397.558 33.5753 397.558 33.8552Z" fill="#CCEEFA"/>
<path d="M372.875 136.746H231.222C220.431 136.746 211.671 127.996 211.671 117.194V37.4421H392.427V117.205C392.427 127.996 383.667 136.746 372.875 136.746Z" fill="#CCEEFA"/>
<path d="M392.427 37.4421V125.716C392.427 131.811 387.534 136.746 381.51 136.746H222.587C216.564 136.746 211.671 131.801 211.671 125.716V37.4421H392.427Z" fill="#CCEEFA"/>
<path d="M397.517 33.0259H205.969C206.394 26.9094 211.484 22.0681 217.714 22.0681H385.771C392.002 22.0681 397.092 26.9094 397.517 33.0259Z" fill="#0D416B"/>
<path d="M229.512 27.5522C229.512 28.7029 228.579 29.6359 227.428 29.6359C226.277 29.6359 225.344 28.7029 225.344 27.5522C225.344 26.4015 226.277 25.4685 227.428 25.4685C228.579 25.4581 229.512 26.4015 229.512 27.5522Z" fill="white"/>
<path d="M238.334 27.5522C238.334 28.7029 237.401 29.6359 236.25 29.6359C235.1 29.6359 234.167 28.7029 234.167 27.5522C234.167 26.4015 235.1 25.4685 236.25 25.4685C237.401 25.4581 238.334 26.4015 238.334 27.5522Z" fill="white"/>
<path d="M247.156 27.5522C247.156 28.7029 246.223 29.6359 245.073 29.6359C243.922 29.6359 242.989 28.7029 242.989 27.5522C242.989 26.4015 243.922 25.4685 245.073 25.4685C246.223 25.4581 247.156 26.4015 247.156 27.5522Z" fill="white"/>
<path d="M397.351 47.4979C396.532 47.0418 395.661 46.679 394.749 46.4198L393.702 41.7236H389.234L388.187 46.4198C387.274 46.6686 386.404 47.0314 385.585 47.4979L381.552 44.9166L378.39 48.0785L380.93 52.1112C380.463 52.9405 380.1 53.8114 379.852 54.7133L375.156 55.7603V60.2284L379.852 61.2755C380.1 62.1981 380.463 63.0793 380.93 63.8983L378.348 67.9517L381.51 71.1136L385.564 68.5323C386.383 68.9988 387.254 69.3616 388.166 69.6104L389.213 74.2962H393.681L394.728 69.6104C395.63 69.3512 396.511 68.9884 397.33 68.5323L397.538 68.667V47.3839L397.351 47.4979ZM391.483 63.7842C388.29 63.7842 385.709 61.2029 385.709 58.0099C385.709 54.8273 388.29 52.2356 391.483 52.2356C394.676 52.2356 397.258 54.8273 397.258 58.0099C397.258 61.2029 394.676 63.7842 391.483 63.7842Z" fill="#E0F5FC"/>
<path d="M316.863 52.0282V42.6047L306.962 40.4069C306.423 38.4994 305.667 36.6438 304.702 34.9125L305.905 33.0258H259.161L260.312 34.8607C259.337 36.5919 258.58 38.4372 258.052 40.3551L248.151 42.5529V51.9763L258.052 54.1845C258.58 56.1127 259.337 57.9787 260.312 59.7203L254.869 68.273L261.535 74.9285L270.088 69.4859C271.829 70.4604 273.664 71.2275 275.582 71.7666L277.78 81.6566H287.203L289.422 71.7666C291.329 71.2275 293.175 70.4604 294.906 69.4859L303.458 74.9285L310.114 68.273L304.713 59.7203C305.677 57.9787 306.434 56.1438 306.973 54.2363L316.863 52.0282ZM282.549 59.4819C275.831 59.4819 270.378 54.029 270.378 47.3112C270.378 40.5935 275.831 35.1406 282.549 35.1406C289.266 35.1406 294.719 40.5935 294.719 47.3112C294.719 54.0393 289.277 59.4819 282.549 59.4819Z" fill="#E0F5FC"/>
<path d="M254.392 116.697L254.786 109.222L247.042 107.035C246.679 105.5 246.151 104.008 245.456 102.587L250.131 96.0147L245.114 90.4477L238.106 94.4078C236.769 93.5681 235.338 92.8839 233.835 92.3656L232.497 84.4246L225.023 84.0306L222.867 91.7954C221.332 92.1375 219.84 92.6662 218.419 93.3711L211.857 88.6957L206.29 93.7133L210.261 100.732C209.4 102.069 208.726 103.489 208.208 104.992L205.948 105.366V115.484L207.596 115.95C207.949 117.495 208.477 118.988 209.182 120.408L205.948 124.928L206.166 128.805V128.826L206.176 128.836L209.504 132.537L216.533 128.577C217.87 129.437 219.311 130.132 220.814 130.64L222.089 138.27V138.28L222.151 138.602L229.626 138.996L229.823 138.28V138.27L231.782 131.22C233.337 130.868 234.82 130.35 236.25 129.645L242.802 134.32L248.369 129.313L244.409 122.284C245.249 120.947 245.933 119.527 246.43 118.023L254.392 116.697ZM234.55 105.034C230.974 101.063 224.857 100.742 220.887 104.319C216.916 107.895 216.595 114.012 220.171 117.982C223.748 121.953 229.864 122.274 233.835 118.697C237.805 115.121 238.127 109.004 234.55 105.034Z" fill="#E0F5FC"/>
<path d="M314.136 105.542C314.427 104.381 314.582 103.199 314.593 102.007L319.963 99.1869L318.48 93.734L312.415 94.0139C311.804 92.9876 311.068 92.0442 310.238 91.2045L312.032 85.4094L307.139 82.6L303.044 87.0681C301.893 86.7882 300.711 86.6327 299.519 86.6223L296.679 81.2419L291.236 82.7244L291.526 88.7994C290.5 89.411 289.557 90.1471 288.707 90.9764L282.901 89.1829L280.092 94.0657L284.581 98.1502C284.29 99.3113 284.145 100.493 284.135 101.675L278.754 104.505L280.237 109.958L286.312 109.668C286.913 110.694 287.649 111.637 288.478 112.488L286.675 118.262L291.568 121.071L295.642 116.645C296.803 116.935 297.985 117.08 299.177 117.09L302.007 122.471L307.45 120.988L307.211 115.805L307.17 114.913C308.207 114.302 309.16 113.576 310.021 112.736L315.816 114.54L318.211 110.352L318.615 109.647L314.136 105.542ZM301.271 108.849C297.384 109.906 293.382 107.615 292.325 103.728C291.267 99.84 293.558 95.8384 297.446 94.781C301.333 93.7236 305.335 96.0147 306.392 99.9022C307.45 103.79 305.148 107.791 301.271 108.849Z" fill="#E0F5FC"/>
<path d="M376.41 115.121L377.654 107.646L370.086 104.599C369.91 103.002 369.547 101.437 368.997 99.9334L374.45 93.8688L370.034 87.7006L362.518 90.8935C361.274 89.8983 359.916 89.0483 358.465 88.3744L358.029 80.2261L350.545 78.9924L347.476 86.5291C345.89 86.7157 344.335 87.0786 342.832 87.6176L336.746 82.1647L330.588 86.581L333.781 94.0865C332.9 95.1958 332.133 96.3672 331.501 97.6216C331.418 97.7979 331.324 97.9741 331.241 98.14L323.093 98.5961L321.849 106.071L323.083 106.568L329.427 109.129C329.604 110.715 329.956 112.27 330.516 113.773L325.063 119.858L329.479 126.016L336.995 122.813C338.239 123.829 339.597 124.679 341.049 125.353L341.474 133.47L348.948 134.704L352.006 127.219C353.603 127.043 355.168 126.68 356.661 126.13L362.736 131.583L368.904 127.167L365.711 119.651C366.727 118.407 367.588 117.028 368.272 115.577L376.41 115.121ZM355.438 114.789C351.042 117.93 344.915 116.925 341.774 112.529C338.623 108.134 339.639 102.017 344.034 98.876C348.43 95.7245 354.556 96.7404 357.698 101.136C360.849 105.521 359.823 111.638 355.438 114.789Z" fill="#E0F5FC"/>
<path d="M285.928 63.7117V168.572C285.928 173.818 281.678 178.068 276.432 178.068H200.702C195.467 178.068 191.217 173.818 191.217 168.572V63.7117C191.217 58.4765 195.467 54.2261 200.702 54.2261H276.432C281.678 54.2261 285.928 58.4765 285.928 63.7117Z" fill="#B0D5F1"/>
<path d="M285.928 63.7117V69.3306H191.206V63.7117C191.206 58.4765 195.457 54.2261 200.692 54.2261H276.422C281.678 54.2261 285.928 58.4765 285.928 63.7117Z" fill="#0D416B"/>
<path d="M223.426 75.8304H200.122V79.7387H223.426V75.8304Z" fill="#EF4048"/>
<path d="M223.426 110.87H200.122V114.779H223.426V110.87Z" fill="#00AAE7"/>
<path d="M223.426 142.655H200.122V146.563H223.426V142.655Z" fill="#0D416B"/>
<path d="M266.304 85.5132H200.122V88.3848H266.304V85.5132Z" fill="white"/>
<path d="M254.371 90.9973H200.122V93.786H254.371V90.9973Z" fill="white"/>
<path d="M261.473 96.3879H200.122V99.1766H261.473V96.3879Z" fill="white"/>
<path d="M261.473 101.779H200.122V104.567H261.473V101.779Z" fill="white"/>
<path d="M266.304 117.287H200.122V120.159H266.304V117.287Z" fill="white"/>
<path d="M254.371 122.771H200.122V125.56H254.371V122.771Z" fill="white"/>
<path d="M261.473 128.162H200.122V130.951H261.473V128.162Z" fill="white"/>
<path d="M266.304 152.182H200.122V155.054H266.304V152.182Z" fill="white"/>
<path d="M254.371 157.666H200.122V160.455H254.371V157.666Z" fill="white"/>
<path d="M261.473 163.067H200.122V165.856H261.473V163.067Z" fill="white"/>
<path d="M448.874 105.345V146.823C448.874 152.949 443.919 157.905 437.792 157.905H342.251C336.135 157.905 331.169 152.949 331.169 146.823V105.345C331.169 99.218 336.135 94.2523 342.251 94.2523H437.792C443.908 94.2523 448.874 99.218 448.874 105.345Z" fill="#B0D5F1"/>
<path d="M448.874 105.345V106.288H331.169V105.345C331.169 99.218 336.135 94.2523 342.251 94.2523H437.792C443.908 94.2523 448.874 99.218 448.874 105.345Z" fill="#2368A0"/>
<path d="M347.258 102.753C348.197 102.753 348.958 101.992 348.958 101.053C348.958 100.114 348.197 99.3529 347.258 99.3529C346.319 99.3529 345.558 100.114 345.558 101.053C345.558 101.992 346.319 102.753 347.258 102.753Z" fill="white"/>
<path d="M355.137 102.753C356.076 102.753 356.837 101.992 356.837 101.053C356.837 100.114 356.076 99.3529 355.137 99.3529C354.198 99.3529 353.437 100.114 353.437 101.053C353.437 101.992 354.198 102.753 355.137 102.753Z" fill="white"/>
<path d="M363.026 102.753C363.965 102.753 364.726 101.992 364.726 101.053C364.726 100.114 363.965 99.3529 363.026 99.3529C362.087 99.3529 361.326 100.114 361.326 101.053C361.326 101.992 362.087 102.753 363.026 102.753Z" fill="white"/>
<path d="M377.146 113.918H338.675V147.175H377.146V113.918Z" fill="white"/>
<path d="M427.363 113.918H383.086V116.251H427.363V113.918Z" fill="#0D416B"/>
<path d="M417.048 118.76H383.086V121.092H417.048V118.76Z" fill="#0D416B"/>
<path d="M433.666 123.58H383.086V125.944H433.666V123.58Z" fill="#0D416B"/>
<path d="M426.15 128.276H383.086V130.64H426.15V128.276Z" fill="#0D416B"/>
</svg>
