<svg width="318" height="90" viewBox="0 0 318 90" fill="none" xmlns="http://www.w3.org/2000/svg">
<path d="M233.971 81.9372H240.955V78.4505H233.971V75.3996H241.392V72.1309H228.951V88.6926H241.61V85.4238H233.971V81.9372Z" fill="#00AAE6"/>
<path d="M144.704 81.9372H151.47V78.4505H144.704V75.3996H151.907V72.1309H139.684V88.6926H152.125V85.4238H144.704V81.9372Z" fill="#00AAE6"/>
<path d="M184.645 77.3609L180.935 72.1309H175.697L182.244 81.2834V88.6926H187.264V81.0655L193.812 72.1309H188.574L184.645 77.3609Z" fill="#00AAE6"/>
<path d="M171.768 79.9758C170.895 79.54 170.022 78.8862 168.712 78.4504C168.058 78.0145 167.403 77.7966 167.185 77.5787C166.966 77.3608 166.748 77.1429 166.748 76.707C166.748 76.2712 166.966 76.0533 167.185 75.8354C167.403 75.6174 167.839 75.3995 168.494 75.3995C169.367 75.3995 170.24 75.6174 171.113 76.0533C171.986 76.4891 172.641 76.9249 173.296 77.3608V73.4383C173.078 73.2203 172.859 73.2203 172.205 73.0024C171.768 72.7845 171.113 72.5666 170.24 72.3487C169.804 72.1308 168.931 71.9128 168.058 71.9128C166.748 71.9128 165.657 72.1308 164.784 72.5666C163.911 73.0024 163.256 73.6562 162.819 74.3099C162.383 74.9637 162.165 75.8354 162.165 76.707C162.165 77.5787 162.383 78.4504 162.819 79.1041C163.256 79.7579 163.911 80.4116 164.566 80.8475C165.22 81.2833 166.093 81.7191 166.966 82.155C167.839 82.3729 168.494 82.8087 168.931 83.0266C169.367 83.2446 169.585 83.6804 169.585 84.1162C169.585 84.3341 169.367 84.5521 169.149 84.9879C168.931 85.2058 168.276 85.4237 167.403 85.4237C166.53 85.4237 165.657 85.2058 164.784 84.9879C163.911 84.5521 163.256 84.1162 162.383 83.6804V87.8208C163.256 88.2567 164.129 88.4746 165.002 88.6925C165.875 88.9104 166.53 88.9104 166.966 89.1283C167.403 89.1283 167.839 89.1283 168.276 89.1283C169.585 89.1283 170.677 88.9104 171.55 88.4746C172.423 88.0387 173.296 87.6029 173.732 86.7312C174.169 86.0775 174.605 84.9879 174.605 84.1162C174.605 83.2446 174.387 82.3729 173.951 81.7191C173.296 80.8475 172.641 80.4116 171.768 79.9758Z" fill="#00AAE6"/>
<path d="M204.507 79.9759C203.852 79.5401 202.76 78.8863 201.451 78.4505C200.796 78.0146 200.141 77.7967 199.923 77.5788C199.705 77.3609 199.487 77.143 199.487 76.7071C199.487 76.2713 199.705 76.0534 199.923 75.8355C200.141 75.6175 200.578 75.3996 201.233 75.3996C202.106 75.3996 202.979 75.6175 203.852 76.0534C204.725 76.4892 205.38 76.9251 206.034 77.3609V73.4384C205.816 73.2205 205.598 73.2205 204.943 73.0025C204.507 72.7846 203.852 72.5667 202.979 72.3488C202.106 72.1309 201.451 72.1309 200.36 72.1309C199.05 72.1309 197.959 72.3488 197.086 72.7846C196.213 73.2205 195.558 73.8742 195.122 74.528C194.685 75.1817 194.467 76.0534 194.467 76.925C194.467 77.7967 194.685 78.6684 195.122 79.3221C195.558 79.9759 196.213 80.6297 196.868 81.0655C197.522 81.5013 198.395 81.9372 199.268 82.373C200.141 82.5909 200.796 83.0267 201.233 83.2447C201.669 83.4626 201.887 83.8984 201.887 84.3343C201.887 84.5522 201.669 84.7701 201.451 85.2059C201.233 85.4238 200.578 85.6418 199.705 85.6418C198.832 85.6418 197.959 85.4238 197.086 85.2059C196.213 84.7701 195.558 84.3343 194.685 83.8984V88.0389C195.558 88.4747 196.431 88.6926 197.304 88.9105C198.177 89.1284 198.832 89.1284 199.268 89.3464C199.705 89.3464 200.141 89.3464 200.578 89.3464C201.887 89.3464 202.979 89.1284 203.852 88.6926C204.725 88.2568 205.598 87.8209 206.034 86.9493C206.471 86.2955 206.907 85.2059 206.907 84.3343C206.907 83.4626 206.689 82.5909 206.253 81.9372C205.816 80.8476 205.161 80.4117 204.507 79.9759Z" fill="#00AAE6"/>
<path d="M279.15 81.5012C278.714 80.8475 278.059 80.4116 277.404 79.7579C276.531 79.322 275.658 78.6683 274.349 78.2325C273.694 77.7966 273.039 77.5787 272.821 77.3608C272.603 77.1429 272.384 76.9249 272.384 76.4891C272.384 76.0533 272.603 75.8354 272.821 75.6174C273.039 75.3995 273.476 75.1816 274.13 75.1816C275.003 75.1816 275.876 75.3995 276.75 75.8354C277.623 76.2712 278.277 76.707 278.932 77.1429V73.2203C278.714 73.0024 278.496 73.0024 277.841 72.7845C277.404 72.5666 276.75 72.3487 275.876 72.1308C275.003 71.9128 274.349 71.9128 273.257 71.9128C271.948 71.9128 270.857 72.1308 269.984 72.5666C269.111 73.0024 268.456 73.6562 268.019 74.3099C267.583 74.9637 267.364 75.8354 267.364 76.707C267.364 77.5787 267.583 78.4504 268.019 79.1041C268.456 79.7579 269.111 80.4116 269.765 80.8475C270.42 81.2833 271.293 81.7191 272.166 82.155C273.039 82.3729 273.694 82.8087 274.13 83.0266C274.567 83.2446 274.785 83.6804 274.785 84.1162C274.785 84.3341 274.567 84.5521 274.349 84.9879C274.13 85.2058 273.476 85.4237 272.603 85.4237C271.73 85.4237 270.857 85.2058 269.984 84.9879C269.111 84.5521 268.456 84.1162 267.583 83.6804V87.8208C268.456 88.2567 269.329 88.4746 270.202 88.6925C271.075 88.9104 271.73 88.9104 272.166 89.1283C272.603 89.1283 273.039 89.1283 273.476 89.1283C274.785 89.1283 275.876 88.9104 276.75 88.4746C277.623 88.0387 278.496 87.6029 278.932 86.7312C279.369 86.0775 279.805 84.9879 279.805 84.1162C279.805 83.0266 279.587 82.155 279.15 81.5012Z" fill="#00AAE6"/>
<path d="M12.6589 79.9758C12.0041 79.54 10.9128 78.8862 9.6033 78.4504C8.94853 78.0145 8.29376 77.7966 8.07551 77.5787C7.85725 77.3608 7.63899 77.1429 7.63899 76.707C7.63899 76.2712 7.85725 76.0533 8.07551 75.8354C8.29376 75.6174 8.73028 75.3995 9.38505 75.3995C10.2581 75.3995 11.1311 75.6174 12.0041 76.0533C12.8772 76.4891 13.5319 76.9249 14.1867 77.3608V73.4383C13.9684 73.2203 13.7502 73.2203 13.0954 73.0024C12.6589 72.7845 12.0041 72.5666 11.1311 72.3487C10.6946 72.1308 9.82156 71.9128 8.94853 71.9128C7.63899 71.9128 6.54771 72.1308 5.67468 72.5666C4.80166 73.0024 4.14689 73.6562 3.71037 74.3099C3.27386 74.9637 3.0556 75.8354 3.0556 76.707C3.0556 77.5787 3.27386 78.4504 3.71037 79.1041C4.14689 79.7579 4.80166 80.4116 5.45643 80.8475C6.1112 81.2833 6.98422 81.7191 7.85725 82.155C8.73028 82.3729 9.38505 82.8087 9.82156 83.0266C10.2581 83.2446 10.4763 83.6804 10.4763 84.1162C10.4763 84.3341 10.2581 84.5521 10.0398 84.9879C9.82156 85.2058 9.16679 85.4237 8.29376 85.4237C7.42074 85.4237 6.54771 85.2058 5.67468 84.9879C4.80166 84.5521 4.14689 84.1162 3.27386 83.6804V87.8208C4.14689 88.2567 5.01991 88.4746 5.89294 88.6925C6.76597 88.9104 7.42074 88.9104 7.85725 89.1283C8.29376 89.1283 8.73028 89.1283 9.16679 89.1283C10.4763 89.1283 11.5676 88.9104 12.4406 88.4746C13.3137 88.0387 14.1867 87.6029 14.6232 86.7312C15.0597 86.0775 15.4962 84.9879 15.4962 84.1162C15.4962 83.2446 15.278 82.3729 14.8415 81.7191C13.9684 80.8475 13.5319 80.4116 12.6589 79.9758Z" fill="#00AAE6"/>
<path d="M209.09 76.2713H214.983V88.6926H220.003V76.2713H226.114V72.1309H209.09V76.2713Z" fill="#00AAE6"/>
<path d="M254.487 78.4505L249.467 72.1309H244.884V88.6926H249.686V79.1042L254.269 84.7701H254.706L259.071 79.1042V88.6926H264.091V72.1309H259.507L254.487 78.4505Z" fill="#00AAE6"/>
<path d="M53.2546 76.2713H59.3658V88.6926H64.3857V76.2713H70.4969V72.1309H53.2546V76.2713Z" fill="#00AAE6"/>
<path d="M39.2862 88.6926H44.3061V81.9372H51.2903V78.6684H44.3061V75.3996H51.2903V72.1309H39.2862V88.6926Z" fill="#00AAE6"/>
<path d="M33.8298 74.5279C32.9568 73.6562 32.0838 73.2204 30.7742 72.7845C29.6829 72.1308 28.3734 71.9128 26.8456 71.9128C24.8813 71.9128 23.1352 72.3487 21.6074 73.0024C20.0797 73.8741 19.2066 74.7458 18.5519 76.0533C17.8971 77.5787 17.4606 78.8862 17.4606 80.4116C17.4606 81.9371 17.8971 83.2446 18.5519 84.5521C19.2066 85.8596 20.2979 86.9492 21.6074 87.6029C22.917 88.4746 24.663 88.6925 26.8456 88.6925C28.8099 88.6925 30.556 88.2567 32.0838 87.6029C33.3933 86.9492 34.4846 85.8596 35.3576 84.5521C36.0124 83.2446 36.4489 81.9371 36.4489 80.1937C36.4489 79.1041 36.2306 78.0145 35.7941 76.9249C35.1394 76.0533 34.7029 75.1816 33.8298 74.5279ZM30.556 82.5908C30.1195 83.2446 29.6829 83.6804 29.0282 84.1162C28.3734 84.5521 27.5004 84.5521 26.6274 84.5521C25.3178 84.5521 24.2265 84.1162 23.5718 83.4625C22.6987 82.5908 22.4805 81.7191 22.4805 80.4116C22.4805 79.1041 22.917 78.2325 23.5718 77.3608C24.4448 76.4891 25.3178 76.2712 26.6274 76.2712C27.2821 76.2712 27.9369 76.2712 28.3734 76.4891C28.8099 76.707 29.4647 76.9249 29.6829 77.3608C30.1195 77.7966 30.3377 78.2325 30.556 78.6683C30.7742 79.1041 30.7742 79.7579 30.7742 80.4116C31.2107 81.2833 30.9925 81.9371 30.556 82.5908Z" fill="#00AAE6"/>
<path d="M94.9417 72.1309L91.4496 81.2834L87.5209 72.1309H84.0288L80.1002 81.2834L76.6081 72.1309H71.3699L78.3541 88.9105H81.4097L85.7749 79.1042L90.14 88.9105H92.9773L100.18 72.1309H94.9417Z" fill="#00AAE6"/>
<path d="M106.291 72.1309L98.8703 88.6926H103.89L105.2 85.4238H112.402L113.712 88.6926H118.732L111.529 72.1309H106.291ZM106.728 82.5909L109.128 76.4892L111.529 82.5909H106.728Z" fill="#00AAE6"/>
<path d="M134.228 82.5908C133.791 82.1549 133.355 81.7191 132.918 81.5012C133.355 81.2833 133.791 81.0653 134.228 80.8474C134.664 80.6295 134.883 80.1937 135.319 79.5399C135.537 78.8862 135.756 78.2324 135.756 77.3607C135.756 76.707 135.537 75.8353 135.101 75.1816C134.664 74.3099 134.01 73.6561 133.137 73.2203C132.264 72.5665 131.172 72.3486 129.863 72.3486H121.351V88.9104H126.371V82.3728H127.025C127.68 82.3728 128.117 82.3728 128.335 82.5908C128.771 82.8087 128.99 83.0266 129.426 83.4624C129.863 83.8983 130.299 84.7699 130.736 85.8595L132.045 88.6925H137.502L135.756 85.2058C135.101 83.8983 134.664 83.0266 134.228 82.5908ZM129.863 78.8862C129.426 79.1041 128.553 79.322 127.462 79.322H126.371V75.3995H127.462C128.553 75.3995 129.426 75.6174 129.863 75.8353C130.299 76.0532 130.517 76.707 130.517 77.3607C130.517 78.2324 130.299 78.6682 129.863 78.8862Z" fill="#00AAE6"/>
<path d="M52.5999 21.1382C49.1078 21.1382 45.8339 21.1382 42.3418 21.1382C41.687 21.1382 41.2505 21.3561 40.814 22.0099C37.1037 26.5861 33.175 31.1624 29.4647 35.7387C28.8099 36.3924 28.5916 36.3924 27.9369 35.7387C24.2265 31.1624 20.5161 26.5861 16.8058 22.0099C16.3693 21.3561 15.9328 21.1382 15.0597 21.1382C11.7859 21.1382 8.51203 21.1382 5.23818 21.1382C3.71038 21.1382 3.27386 21.574 3.27386 23.3174C3.27386 36.6103 3.27386 50.1212 3.27386 63.4142C3.27386 64.9396 3.71038 65.5934 5.23818 65.5934C8.51203 65.5934 12.0041 65.5934 15.278 65.5934C16.8058 65.5934 17.4606 65.1576 17.4606 63.6321C17.4606 57.0946 17.4606 50.775 17.4606 44.2375C17.4606 43.8016 17.4606 43.5837 17.6788 43.1479C18.1153 43.3658 18.1153 43.5837 18.3336 43.8016C21.1709 47.2883 24.0083 50.775 27.0638 54.2617C28.1551 55.5692 29.2464 55.5692 30.3377 54.2617C31.429 52.9542 32.5203 51.6467 33.6115 50.3392C35.5759 47.9421 37.5402 45.545 39.5045 43.1479H39.7227C39.7227 43.5837 39.7227 43.8016 39.7227 44.2375C39.7227 50.775 39.7227 57.0946 39.7227 63.6321C39.7227 64.9396 40.1592 65.5934 41.687 65.5934C45.3974 65.5934 48.8895 65.5934 52.5999 65.5934C53.9094 65.5934 54.3459 64.9396 54.3459 63.85C54.3459 50.3391 54.3459 36.8283 54.3459 23.0994C54.3459 21.7919 53.6912 21.1382 52.5999 21.1382Z" fill="white"/>
<path d="M126.589 50.5571C125.716 49.0316 124.843 47.7241 123.533 46.6346C122.879 45.9808 123.097 45.7629 123.752 45.327C126.152 43.8016 127.68 41.8404 128.335 39.2254C130.518 32.0341 126.152 23.7532 117.859 21.7919C115.894 21.3561 113.93 21.3561 111.966 21.1382C105.418 21.1382 99.0885 21.1382 92.5408 21.1382C90.7948 21.1382 90.3583 21.574 90.3583 23.3174C90.3583 30.0728 90.3583 36.6103 90.3583 43.3658C90.3583 50.1212 90.3583 56.8767 90.3583 63.4142C90.3583 64.9396 90.7948 65.3755 92.3226 65.3755C95.8147 65.3755 99.5251 65.3755 103.017 65.3755C104.327 65.3755 104.981 64.9396 104.981 63.4142C104.981 61.235 104.981 59.0559 104.981 56.8767C104.981 54.4796 104.981 52.3004 104.981 49.9033C104.981 49.4675 104.981 48.8137 105.636 48.8137C107.601 48.8137 109.347 49.0316 110.656 50.775C111.966 52.3004 112.839 54.0438 113.712 55.7871C115.021 58.62 116.331 61.6709 117.64 64.5038C117.859 64.9396 118.077 65.3755 118.732 65.3755C123.097 65.3755 127.244 65.3755 131.609 65.3755C132.7 65.3755 133.355 64.2859 132.918 63.4142C130.736 59.2738 128.771 54.9154 126.589 50.5571ZM113.057 38.1358C112.402 38.7895 111.747 39.0074 110.874 39.2254C109.128 39.6612 107.382 39.4433 105.636 39.4433C104.981 39.4433 104.763 39.2254 104.763 38.5716C104.763 37.482 104.763 36.3924 104.763 35.3028C104.763 34.2132 104.763 33.1237 104.763 32.252C104.763 31.8162 104.981 31.3803 105.636 31.3803C107.382 31.3803 109.347 31.3803 111.093 31.8162C113.712 32.4699 114.803 35.9566 113.057 38.1358Z" fill="white"/>
<path d="M180.935 50.5571C176.788 41.1866 172.641 31.8162 168.494 22.4457C168.058 21.574 167.621 21.1382 166.748 21.1382C162.601 21.1382 158.236 21.1382 154.089 21.1382C153.216 21.1382 152.78 21.3561 152.343 22.2278C150.597 26.3682 148.633 30.5086 146.887 34.6491C142.74 44.2375 138.593 53.6079 134.228 62.9784C133.573 64.5038 134.228 65.3755 135.756 65.3755C139.684 65.3755 143.395 65.3755 147.323 65.3755C148.196 65.3755 148.633 65.1576 148.851 64.2859C149.724 62.1067 150.597 59.9275 151.47 57.7484C151.688 57.0946 152.125 56.6588 152.998 56.6588C155.399 56.6588 158.018 56.6588 160.419 56.6588C163.038 56.6588 165.439 56.6588 168.058 56.6588C168.931 56.6588 169.367 56.8767 169.585 57.7484C170.458 59.9275 171.332 62.1067 172.205 64.2859C172.423 64.9396 172.859 65.1576 173.514 65.1576C177.443 65.1576 181.371 65.1576 185.3 65.1576C186.828 65.1576 187.264 64.2859 186.828 62.9784C184.645 59.0559 182.899 54.6975 180.935 50.5571ZM163.038 47.7241C160.855 47.7241 158.891 47.7241 156.708 47.7241C155.835 47.7241 155.835 47.5062 156.054 46.6346C157.363 43.1479 158.891 39.8791 160.2 36.3924C160.2 36.1745 160.419 36.1745 160.419 35.9566C161.728 39.4433 163.038 42.4941 164.347 45.7629C165.22 47.7241 165.22 47.7241 163.038 47.7241Z" fill="white"/>
<path d="M312.762 54.9154C307.524 54.9154 302.286 54.9154 297.266 54.9154C296.174 54.9154 295.956 54.6975 295.956 53.6079C295.956 52.0825 295.956 50.775 295.956 49.2496C295.956 47.9421 295.956 47.9421 297.484 47.9421C302.286 47.9421 307.087 47.9421 311.889 47.9421C313.417 47.9421 313.853 47.5062 313.853 45.9808C313.853 44.0195 313.853 41.8404 313.853 39.8791C313.853 37.6999 313.635 37.482 311.452 37.482C306.869 37.482 302.286 37.482 297.702 37.482C296.174 37.482 296.174 37.482 296.174 36.1745C296.174 35.3028 296.174 34.6491 296.174 33.7774C296.174 31.8162 295.956 31.8162 297.92 31.8162C302.722 31.8162 307.742 31.8162 312.544 31.8162C314.071 31.8162 314.726 31.1624 314.726 29.637C314.726 27.4578 314.726 25.4965 314.726 23.3174C314.726 21.7919 314.071 21.1382 312.544 21.1382C302.94 21.1382 293.119 21.1382 283.515 21.1382C281.769 21.1382 281.333 21.574 281.333 23.3174C281.333 30.0728 281.333 36.6103 281.333 43.3658C281.333 50.1212 281.333 56.8767 281.333 63.6321C281.333 64.9396 281.769 65.5934 283.079 65.5934C293.119 65.5934 303.159 65.5934 313.198 65.5934C314.508 65.5934 314.944 64.9396 314.944 63.85C314.944 61.6709 314.944 59.4917 314.944 57.5304C314.944 55.3513 314.726 54.9154 312.762 54.9154Z" fill="white"/>
<path d="M231.352 51.6466C231.352 50.1212 230.261 49.4675 228.951 50.3391C226.332 51.8646 223.495 53.1721 220.439 53.8258C217.165 54.4796 214.11 54.6975 210.836 53.39C206.689 51.8646 203.852 48.8137 203.634 44.2374C203.197 39.6612 205.598 35.9566 209.963 33.9953C214.11 32.0341 218.257 32.0341 222.404 33.3416C224.804 33.9953 226.769 35.3028 228.951 36.3924C230.043 37.0462 231.134 36.3924 231.134 35.0849C231.134 33.3416 231.134 31.5982 231.134 30.0728C231.134 28.5474 231.134 27.0219 231.134 25.4965C231.134 24.4069 230.697 23.9711 229.824 23.7532C228.297 23.3173 226.769 22.6636 225.241 22.4457C218.475 20.7023 211.491 20.0486 204.507 22.2278C197.959 24.189 192.939 28.1115 190.32 34.6491C188.792 38.3537 188.574 42.2762 189.01 46.4166C189.883 54.6975 194.248 60.5813 201.887 64.068C205.598 65.8113 209.308 66.2471 213.455 66.2471C219.348 66.2471 225.241 65.3755 230.479 62.7604C231.352 62.3246 231.57 61.8888 231.57 61.0171C231.352 57.7483 231.352 54.6975 231.352 51.6466Z" fill="white"/>
<path d="M271.73 53.3899C266.491 53.3899 261.472 53.3899 256.233 53.3899C254.706 53.3899 254.706 53.3899 254.487 51.8644C254.487 42.2761 254.487 32.9056 254.487 23.3172C254.487 21.7918 254.051 21.356 252.523 21.356C249.031 21.356 245.539 21.356 241.828 21.356C240.301 21.356 239.864 21.7918 239.864 23.5351C239.864 30.2906 239.864 36.8281 239.864 43.5836C239.864 50.339 239.864 57.0945 239.864 63.8499C239.864 65.1574 240.301 65.8112 241.61 65.8112C251.65 65.8112 261.69 65.8112 271.948 65.8112C273.257 65.8112 273.912 65.3753 273.912 64.0678C273.912 61.4528 273.912 58.6199 273.912 56.0049C273.912 53.8257 273.476 53.3899 271.73 53.3899Z" fill="white"/>
<path d="M77.6994 21.1382C74.2073 21.1382 70.7152 21.1382 67.2231 21.1382C65.477 21.1382 65.0405 21.574 65.0405 23.3174C65.0405 29.8549 65.0405 36.6103 65.0405 43.1479C65.0405 49.9033 65.0405 56.6588 65.0405 63.1963C65.0405 64.7217 65.477 65.3755 67.0048 65.3755C70.4969 65.3755 73.9891 65.3755 77.4812 65.3755C79.009 65.3755 79.4455 64.7217 79.4455 63.4142C79.4455 49.9033 79.4455 36.6103 79.4455 23.0994C79.6637 21.7919 79.009 21.1382 77.6994 21.1382Z" fill="white"/>
<path d="M72.0247 17.6514C76.1716 17.6514 79.4455 14.3826 79.4455 10.2422C79.4455 6.10177 76.1716 2.83301 72.0247 2.83301C67.8779 2.83301 64.604 6.10177 64.604 10.2422C64.604 14.3826 67.8779 17.6514 72.0247 17.6514Z" fill="white"/>
</svg>
