<svg width="860" height="38" viewBox="0 0 860 38" fill="none" xmlns="http://www.w3.org/2000/svg">
<path d="M10.2958 15.62C11.2824 15.62 12.1424 15.5 12.8758 15.26C13.6091 15.0067 14.2158 14.6533 14.6958 14.2C15.1891 13.7333 15.5558 13.1733 15.7958 12.52C16.0358 11.8533 16.1558 11.1133 16.1558 10.3C16.1558 9.52666 16.0358 8.82667 15.7958 8.2C15.5558 7.57333 15.1958 7.04 14.7158 6.6C14.2358 6.16 13.6291 5.82667 12.8958 5.6C12.1624 5.36 11.2958 5.24 10.2958 5.24H6.27578V15.62H10.2958ZM10.2958 1.08C12.2291 1.08 13.9024 1.30666 15.3158 1.76C16.7291 2.21333 17.8958 2.84667 18.8158 3.66C19.7358 4.47333 20.4158 5.44667 20.8558 6.58C21.3091 7.71333 21.5358 8.95333 21.5358 10.3C21.5358 11.7 21.3024 12.9867 20.8358 14.16C20.3691 15.32 19.6691 16.32 18.7358 17.16C17.8024 18 16.6291 18.6533 15.2158 19.12C13.8158 19.5867 12.1758 19.82 10.2958 19.82H6.27578V30H0.895782V1.08H10.2958ZM29.8033 0.279999V30H24.8633V0.279999H29.8033ZM45.5652 21.24C44.1385 21.3067 42.9385 21.4333 41.9652 21.62C40.9918 21.7933 40.2118 22.02 39.6252 22.3C39.0385 22.58 38.6185 22.9067 38.3652 23.28C38.1118 23.6533 37.9852 24.06 37.9852 24.5C37.9852 25.3667 38.2385 25.9867 38.7452 26.36C39.2652 26.7333 39.9385 26.92 40.7652 26.92C41.7785 26.92 42.6518 26.74 43.3852 26.38C44.1318 26.0067 44.8585 25.4467 45.5652 24.7V21.24ZM34.2452 12.34C36.6052 10.18 39.4452 9.1 42.7652 9.1C43.9652 9.1 45.0385 9.3 45.9852 9.7C46.9318 10.0867 47.7318 10.6333 48.3852 11.34C49.0385 12.0333 49.5318 12.8667 49.8652 13.84C50.2118 14.8133 50.3852 15.88 50.3852 17.04V30H48.1452C47.6785 30 47.3185 29.9333 47.0652 29.8C46.8118 29.6533 46.6118 29.3667 46.4652 28.94L46.0252 27.46C45.5052 27.9267 44.9985 28.34 44.5052 28.7C44.0118 29.0467 43.4985 29.34 42.9652 29.58C42.4318 29.82 41.8585 30 41.2452 30.12C40.6452 30.2533 39.9785 30.32 39.2452 30.32C38.3785 30.32 37.5785 30.2067 36.8452 29.98C36.1118 29.74 35.4785 29.3867 34.9452 28.92C34.4118 28.4533 33.9985 27.8733 33.7052 27.18C33.4118 26.4867 33.2652 25.68 33.2652 24.76C33.2652 24.24 33.3518 23.7267 33.5252 23.22C33.6985 22.7 33.9785 22.2067 34.3652 21.74C34.7652 21.2733 35.2785 20.8333 35.9052 20.42C36.5318 20.0067 37.2985 19.6467 38.2052 19.34C39.1252 19.0333 40.1918 18.7867 41.4052 18.6C42.6185 18.4 44.0052 18.28 45.5652 18.24V17.04C45.5652 15.6667 45.2718 14.6533 44.6852 14C44.0985 13.3333 43.2518 13 42.1452 13C41.3452 13 40.6785 13.0933 40.1452 13.28C39.6252 13.4667 39.1652 13.68 38.7652 13.92C38.3652 14.1467 37.9985 14.3533 37.6652 14.54C37.3452 14.7267 36.9852 14.82 36.5852 14.82C36.2385 14.82 35.9452 14.7333 35.7052 14.56C35.4652 14.3733 35.2718 14.16 35.1252 13.92L34.2452 12.34ZM73.0917 9.48L61.9117 35.64C61.7651 35.9867 61.5717 36.2467 61.3317 36.42C61.1051 36.6067 60.7517 36.7 60.2717 36.7H56.5917L60.4317 28.46L52.1317 9.48H56.4717C56.8584 9.48 57.1584 9.57333 57.3717 9.76C57.5984 9.94667 57.7651 10.16 57.8717 10.4L62.2317 21.04C62.3784 21.4 62.4984 21.76 62.5917 22.12C62.6984 22.48 62.7984 22.8467 62.8917 23.22C63.0117 22.8467 63.1317 22.48 63.2517 22.12C63.3717 21.7467 63.5051 21.38 63.6517 21.02L67.7717 10.4C67.8784 10.1333 68.0517 9.91333 68.2917 9.74C68.5451 9.56667 68.8251 9.48 69.1317 9.48H73.0917ZM73.9811 34.9C73.7411 34.7 73.6211 34.4533 73.6211 34.16C73.6211 34.0533 73.6544 33.9333 73.7211 33.8C73.8011 33.6667 73.8944 33.5467 74.0011 33.44C74.1478 33.28 74.3278 33.08 74.5411 32.84C74.7544 32.6133 74.9678 32.3467 75.1811 32.04C75.3944 31.7467 75.5878 31.42 75.7611 31.06C75.9478 30.7133 76.0878 30.34 76.1811 29.94C75.7544 29.94 75.3678 29.8667 75.0211 29.72C74.6744 29.56 74.3744 29.3467 74.1211 29.08C73.8811 28.8133 73.6878 28.5 73.5411 28.14C73.4078 27.78 73.3411 27.3867 73.3411 26.96C73.3411 26.5867 73.4078 26.24 73.5411 25.92C73.6878 25.5867 73.8878 25.3 74.1411 25.06C74.3944 24.8067 74.7011 24.6133 75.0611 24.48C75.4211 24.3333 75.8144 24.26 76.2411 24.26C76.7478 24.26 77.1878 24.3533 77.5611 24.54C77.9478 24.7133 78.2611 24.96 78.5011 25.28C78.7544 25.5867 78.9411 25.9467 79.0611 26.36C79.1944 26.76 79.2611 27.1867 79.2611 27.64C79.2611 28.28 79.1611 28.9533 78.9611 29.66C78.7744 30.3667 78.4944 31.0733 78.1211 31.78C77.7478 32.4867 77.2811 33.1733 76.7211 33.84C76.1744 34.5067 75.5478 35.12 74.8411 35.68L73.9811 34.9ZM104.003 21.24C102.576 21.3067 101.376 21.4333 100.403 21.62C99.4293 21.7933 98.6493 22.02 98.0627 22.3C97.476 22.58 97.056 22.9067 96.8027 23.28C96.5493 23.6533 96.4227 24.06 96.4227 24.5C96.4227 25.3667 96.676 25.9867 97.1827 26.36C97.7027 26.7333 98.376 26.92 99.2027 26.92C100.216 26.92 101.089 26.74 101.823 26.38C102.569 26.0067 103.296 25.4467 104.003 24.7V21.24ZM92.6827 12.34C95.0427 10.18 97.8827 9.1 101.203 9.1C102.403 9.1 103.476 9.3 104.423 9.7C105.369 10.0867 106.169 10.6333 106.823 11.34C107.476 12.0333 107.969 12.8667 108.303 13.84C108.649 14.8133 108.823 15.88 108.823 17.04V30H106.583C106.116 30 105.756 29.9333 105.503 29.8C105.249 29.6533 105.049 29.3667 104.903 28.94L104.463 27.46C103.943 27.9267 103.436 28.34 102.943 28.7C102.449 29.0467 101.936 29.34 101.403 29.58C100.869 29.82 100.296 30 99.6827 30.12C99.0827 30.2533 98.416 30.32 97.6827 30.32C96.816 30.32 96.016 30.2067 95.2827 29.98C94.5493 29.74 93.916 29.3867 93.3827 28.92C92.8493 28.4533 92.436 27.8733 92.1427 27.18C91.8493 26.4867 91.7027 25.68 91.7027 24.76C91.7027 24.24 91.7893 23.7267 91.9627 23.22C92.136 22.7 92.416 22.2067 92.8027 21.74C93.2027 21.2733 93.716 20.8333 94.3427 20.42C94.9693 20.0067 95.736 19.6467 96.6427 19.34C97.5627 19.0333 98.6293 18.7867 99.8427 18.6C101.056 18.4 102.443 18.28 104.003 18.24V17.04C104.003 15.6667 103.709 14.6533 103.123 14C102.536 13.3333 101.689 13 100.583 13C99.7827 13 99.116 13.0933 98.5827 13.28C98.0627 13.4667 97.6027 13.68 97.2027 13.92C96.8027 14.1467 96.436 14.3533 96.1027 14.54C95.7827 14.7267 95.4227 14.82 95.0227 14.82C94.676 14.82 94.3827 14.7333 94.1427 14.56C93.9027 14.3733 93.7093 14.16 93.5627 13.92L92.6827 12.34ZM118.095 12C118.508 11.5867 118.942 11.2067 119.395 10.86C119.862 10.5 120.348 10.2 120.855 9.96C121.375 9.70667 121.928 9.51333 122.515 9.38C123.102 9.23333 123.742 9.16 124.435 9.16C125.555 9.16 126.548 9.35333 127.415 9.74C128.282 10.1133 129.002 10.6467 129.575 11.34C130.162 12.02 130.602 12.84 130.895 13.8C131.202 14.7467 131.355 15.7933 131.355 16.94V30H126.415V16.94C126.415 15.6867 126.128 14.72 125.555 14.04C124.982 13.3467 124.108 13 122.935 13C122.082 13 121.282 13.1933 120.535 13.58C119.788 13.9667 119.082 14.4933 118.415 15.16V30H113.475V9.48H116.495C117.135 9.48 117.555 9.78 117.755 10.38L118.095 12ZM146.893 21.24C145.467 21.3067 144.267 21.4333 143.293 21.62C142.32 21.7933 141.54 22.02 140.953 22.3C140.367 22.58 139.947 22.9067 139.693 23.28C139.44 23.6533 139.313 24.06 139.313 24.5C139.313 25.3667 139.567 25.9867 140.073 26.36C140.593 26.7333 141.267 26.92 142.093 26.92C143.107 26.92 143.98 26.74 144.713 26.38C145.46 26.0067 146.187 25.4467 146.893 24.7V21.24ZM135.573 12.34C137.933 10.18 140.773 9.1 144.093 9.1C145.293 9.1 146.367 9.3 147.313 9.7C148.26 10.0867 149.06 10.6333 149.713 11.34C150.367 12.0333 150.86 12.8667 151.193 13.84C151.54 14.8133 151.713 15.88 151.713 17.04V30H149.473C149.007 30 148.647 29.9333 148.393 29.8C148.14 29.6533 147.94 29.3667 147.793 28.94L147.353 27.46C146.833 27.9267 146.327 28.34 145.833 28.7C145.34 29.0467 144.827 29.34 144.293 29.58C143.76 29.82 143.187 30 142.573 30.12C141.973 30.2533 141.307 30.32 140.573 30.32C139.707 30.32 138.907 30.2067 138.173 29.98C137.44 29.74 136.807 29.3867 136.273 28.92C135.74 28.4533 135.327 27.8733 135.033 27.18C134.74 26.4867 134.593 25.68 134.593 24.76C134.593 24.24 134.68 23.7267 134.853 23.22C135.027 22.7 135.307 22.2067 135.693 21.74C136.093 21.2733 136.607 20.8333 137.233 20.42C137.86 20.0067 138.627 19.6467 139.533 19.34C140.453 19.0333 141.52 18.7867 142.733 18.6C143.947 18.4 145.333 18.28 146.893 18.24V17.04C146.893 15.6667 146.6 14.6533 146.013 14C145.427 13.3333 144.58 13 143.473 13C142.673 13 142.007 13.0933 141.473 13.28C140.953 13.4667 140.493 13.68 140.093 13.92C139.693 14.1467 139.327 14.3533 138.993 14.54C138.673 14.7267 138.313 14.82 137.913 14.82C137.567 14.82 137.273 14.7333 137.033 14.56C136.793 14.3733 136.6 14.16 136.453 13.92L135.573 12.34ZM161.366 0.279999V30H156.426V0.279999H161.366ZM184.928 9.48L173.748 35.64C173.601 35.9867 173.408 36.2467 173.168 36.42C172.941 36.6067 172.588 36.7 172.108 36.7H168.428L172.268 28.46L163.968 9.48H168.308C168.694 9.48 168.994 9.57333 169.208 9.76C169.434 9.94667 169.601 10.16 169.708 10.4L174.068 21.04C174.214 21.4 174.334 21.76 174.428 22.12C174.534 22.48 174.634 22.8467 174.728 23.22C174.848 22.8467 174.968 22.48 175.088 22.12C175.208 21.7467 175.341 21.38 175.488 21.02L179.608 10.4C179.714 10.1333 179.888 9.91333 180.128 9.74C180.381 9.56667 180.661 9.48 180.968 9.48H184.928ZM202.121 11.52C202.121 11.8667 202.061 12.2067 201.941 12.54C201.821 12.8733 201.661 13.1467 201.461 13.36L191.721 26.2H201.821V30H185.981V27.94C185.981 27.7133 186.035 27.4467 186.141 27.14C186.248 26.82 186.408 26.52 186.621 26.24L196.461 13.26H186.561V9.48H202.121V11.52ZM218.648 17.38C218.648 16.74 218.555 16.14 218.368 15.58C218.195 15.0067 217.928 14.5067 217.568 14.08C217.208 13.6533 216.748 13.32 216.188 13.08C215.642 12.8267 215.002 12.7 214.268 12.7C212.842 12.7 211.715 13.1067 210.888 13.92C210.075 14.7333 209.555 15.8867 209.328 17.38H218.648ZM209.228 20.36C209.308 21.4133 209.495 22.3267 209.788 23.1C210.082 23.86 210.468 24.4933 210.948 25C211.428 25.4933 211.995 25.8667 212.648 26.12C213.315 26.36 214.048 26.48 214.848 26.48C215.648 26.48 216.335 26.3867 216.908 26.2C217.495 26.0133 218.002 25.8067 218.428 25.58C218.868 25.3533 219.248 25.1467 219.568 24.96C219.902 24.7733 220.222 24.68 220.528 24.68C220.942 24.68 221.248 24.8333 221.448 25.14L222.868 26.94C222.322 27.58 221.708 28.12 221.028 28.56C220.348 28.9867 219.635 29.3333 218.888 29.6C218.155 29.8533 217.402 30.0333 216.628 30.14C215.868 30.2467 215.128 30.3 214.408 30.3C212.982 30.3 211.655 30.0667 210.428 29.6C209.202 29.12 208.135 28.42 207.228 27.5C206.322 26.5667 205.608 25.42 205.088 24.06C204.568 22.6867 204.308 21.1 204.308 19.3C204.308 17.9 204.535 16.5867 204.988 15.36C205.442 14.12 206.088 13.0467 206.928 12.14C207.782 11.22 208.815 10.4933 210.028 9.96C211.255 9.42667 212.635 9.16 214.168 9.16C215.462 9.16 216.655 9.36667 217.748 9.78C218.842 10.1933 219.782 10.8 220.568 11.6C221.355 12.3867 221.968 13.36 222.408 14.52C222.862 15.6667 223.088 16.98 223.088 18.46C223.088 19.2067 223.008 19.7133 222.848 19.98C222.688 20.2333 222.382 20.36 221.928 20.36H209.228ZM226.715 34.9C226.475 34.7 226.355 34.4533 226.355 34.16C226.355 34.0533 226.389 33.9333 226.455 33.8C226.535 33.6667 226.629 33.5467 226.735 33.44C226.882 33.28 227.062 33.08 227.275 32.84C227.489 32.6133 227.702 32.3467 227.915 32.04C228.129 31.7467 228.322 31.42 228.495 31.06C228.682 30.7133 228.822 30.34 228.915 29.94C228.489 29.94 228.102 29.8667 227.755 29.72C227.409 29.56 227.109 29.3467 226.855 29.08C226.615 28.8133 226.422 28.5 226.275 28.14C226.142 27.78 226.075 27.3867 226.075 26.96C226.075 26.5867 226.142 26.24 226.275 25.92C226.422 25.5867 226.622 25.3 226.875 25.06C227.129 24.8067 227.435 24.6133 227.795 24.48C228.155 24.3333 228.549 24.26 228.975 24.26C229.482 24.26 229.922 24.3533 230.295 24.54C230.682 24.7133 230.995 24.96 231.235 25.28C231.489 25.5867 231.675 25.9467 231.795 26.36C231.929 26.76 231.995 27.1867 231.995 27.64C231.995 28.28 231.895 28.9533 231.695 29.66C231.509 30.3667 231.229 31.0733 230.855 31.78C230.482 32.4867 230.015 33.1733 229.455 33.84C228.909 34.5067 228.282 35.12 227.575 35.68L226.715 34.9ZM256.737 21.24C255.31 21.3067 254.11 21.4333 253.137 21.62C252.164 21.7933 251.384 22.02 250.797 22.3C250.21 22.58 249.79 22.9067 249.537 23.28C249.284 23.6533 249.157 24.06 249.157 24.5C249.157 25.3667 249.41 25.9867 249.917 26.36C250.437 26.7333 251.11 26.92 251.937 26.92C252.95 26.92 253.824 26.74 254.557 26.38C255.304 26.0067 256.03 25.4467 256.737 24.7V21.24ZM245.417 12.34C247.777 10.18 250.617 9.1 253.937 9.1C255.137 9.1 256.21 9.3 257.157 9.7C258.104 10.0867 258.904 10.6333 259.557 11.34C260.21 12.0333 260.704 12.8667 261.037 13.84C261.384 14.8133 261.557 15.88 261.557 17.04V30H259.317C258.85 30 258.49 29.9333 258.237 29.8C257.984 29.6533 257.784 29.3667 257.637 28.94L257.197 27.46C256.677 27.9267 256.17 28.34 255.677 28.7C255.184 29.0467 254.67 29.34 254.137 29.58C253.604 29.82 253.03 30 252.417 30.12C251.817 30.2533 251.15 30.32 250.417 30.32C249.55 30.32 248.75 30.2067 248.017 29.98C247.284 29.74 246.65 29.3867 246.117 28.92C245.584 28.4533 245.17 27.8733 244.877 27.18C244.584 26.4867 244.437 25.68 244.437 24.76C244.437 24.24 244.524 23.7267 244.697 23.22C244.87 22.7 245.15 22.2067 245.537 21.74C245.937 21.2733 246.45 20.8333 247.077 20.42C247.704 20.0067 248.47 19.6467 249.377 19.34C250.297 19.0333 251.364 18.7867 252.577 18.6C253.79 18.4 255.177 18.28 256.737 18.24V17.04C256.737 15.6667 256.444 14.6533 255.857 14C255.27 13.3333 254.424 13 253.317 13C252.517 13 251.85 13.0933 251.317 13.28C250.797 13.4667 250.337 13.68 249.937 13.92C249.537 14.1467 249.17 14.3533 248.837 14.54C248.517 14.7267 248.157 14.82 247.757 14.82C247.41 14.82 247.117 14.7333 246.877 14.56C246.637 14.3733 246.444 14.16 246.297 13.92L245.417 12.34ZM270.83 12C271.243 11.5867 271.676 11.2067 272.13 10.86C272.596 10.5 273.083 10.2 273.59 9.96C274.11 9.70667 274.663 9.51333 275.25 9.38C275.836 9.23333 276.476 9.16 277.17 9.16C278.29 9.16 279.283 9.35333 280.15 9.74C281.016 10.1133 281.736 10.6467 282.31 11.34C282.896 12.02 283.336 12.84 283.63 13.8C283.936 14.7467 284.09 15.7933 284.09 16.94V30H279.15V16.94C279.15 15.6867 278.863 14.72 278.29 14.04C277.716 13.3467 276.843 13 275.67 13C274.816 13 274.016 13.1933 273.27 13.58C272.523 13.9667 271.816 14.4933 271.15 15.16V30H266.21V9.48H269.23C269.87 9.48 270.29 9.78 270.49 10.38L270.83 12ZM301.668 14.72C301.108 14.04 300.494 13.56 299.828 13.28C299.174 13 298.468 12.86 297.708 12.86C296.961 12.86 296.288 13 295.688 13.28C295.088 13.56 294.574 13.9867 294.148 14.56C293.721 15.12 293.394 15.84 293.168 16.72C292.941 17.5867 292.828 18.6133 292.828 19.8C292.828 21 292.921 22.02 293.108 22.86C293.308 23.6867 293.588 24.3667 293.948 24.9C294.308 25.42 294.748 25.8 295.268 26.04C295.788 26.2667 296.368 26.38 297.008 26.38C298.034 26.38 298.908 26.1667 299.628 25.74C300.348 25.3133 301.028 24.7067 301.668 23.92V14.72ZM306.608 0.279999V30H303.588C302.934 30 302.521 29.7 302.348 29.1L301.928 27.12C301.101 28.0667 300.148 28.8333 299.068 29.42C298.001 30.0067 296.754 30.3 295.328 30.3C294.208 30.3 293.181 30.0667 292.248 29.6C291.314 29.1333 290.508 28.46 289.828 27.58C289.161 26.6867 288.641 25.5867 288.268 24.28C287.908 22.9733 287.728 21.48 287.728 19.8C287.728 18.28 287.934 16.8667 288.348 15.56C288.761 14.2533 289.354 13.12 290.128 12.16C290.901 11.2 291.828 10.4533 292.908 9.92C293.988 9.37333 295.201 9.1 296.548 9.1C297.694 9.1 298.674 9.28 299.488 9.64C300.301 10 301.028 10.4867 301.668 11.1V0.279999H306.608ZM328.71 19.24C329.323 19.24 329.856 19.16 330.31 19C330.763 18.8267 331.136 18.5933 331.43 18.3C331.736 18.0067 331.963 17.6533 332.11 17.24C332.27 16.8267 332.35 16.3733 332.35 15.88C332.35 14.8667 332.043 14.0667 331.43 13.48C330.83 12.88 329.923 12.58 328.71 12.58C327.496 12.58 326.583 12.88 325.97 13.48C325.37 14.0667 325.07 14.8667 325.07 15.88C325.07 16.36 325.143 16.8067 325.29 17.22C325.45 17.6333 325.676 17.9933 325.97 18.3C326.276 18.5933 326.656 18.8267 327.11 19C327.576 19.16 328.11 19.24 328.71 19.24ZM334.29 30.92C334.29 30.52 334.17 30.1933 333.93 29.94C333.69 29.6867 333.363 29.4933 332.95 29.36C332.536 29.2133 332.05 29.1067 331.49 29.04C330.943 28.9733 330.356 28.9267 329.73 28.9C329.116 28.86 328.476 28.8267 327.81 28.8C327.156 28.7733 326.516 28.72 325.89 28.64C325.343 28.9467 324.896 29.3067 324.55 29.72C324.216 30.1333 324.05 30.6133 324.05 31.16C324.05 31.52 324.136 31.8533 324.31 32.16C324.496 32.48 324.783 32.7533 325.17 32.98C325.57 33.2067 326.083 33.38 326.71 33.5C327.336 33.6333 328.103 33.7 329.01 33.7C329.93 33.7 330.723 33.6267 331.39 33.48C332.056 33.3467 332.603 33.1533 333.03 32.9C333.47 32.66 333.79 32.3667 333.99 32.02C334.19 31.6867 334.29 31.32 334.29 30.92ZM339.21 10.18V12.02C339.21 12.6067 338.856 12.9667 338.15 13.1L336.31 13.44C336.59 14.1467 336.73 14.92 336.73 15.76C336.73 16.7733 336.523 17.6933 336.11 18.52C335.71 19.3333 335.15 20.0267 334.43 20.6C333.71 21.1733 332.856 21.62 331.87 21.94C330.896 22.2467 329.843 22.4 328.71 22.4C328.31 22.4 327.923 22.38 327.55 22.34C327.176 22.3 326.81 22.2467 326.45 22.18C325.81 22.5667 325.49 23 325.49 23.48C325.49 23.8933 325.676 24.2 326.05 24.4C326.436 24.5867 326.943 24.72 327.57 24.8C328.196 24.88 328.91 24.9333 329.71 24.96C330.51 24.9733 331.33 25.0133 332.17 25.08C333.01 25.1467 333.83 25.2667 334.63 25.44C335.43 25.6 336.143 25.86 336.77 26.22C337.396 26.58 337.896 27.0733 338.27 27.7C338.656 28.3133 338.85 29.1067 338.85 30.08C338.85 30.9867 338.623 31.8667 338.17 32.72C337.73 33.5733 337.083 34.3333 336.23 35C335.39 35.6667 334.35 36.2 333.11 36.6C331.883 37.0133 330.483 37.22 328.91 37.22C327.363 37.22 326.016 37.0667 324.87 36.76C323.723 36.4667 322.77 36.0667 322.01 35.56C321.25 35.0667 320.683 34.4933 320.31 33.84C319.936 33.1867 319.75 32.5067 319.75 31.8C319.75 30.84 320.036 30.04 320.61 29.4C321.196 28.7467 321.996 28.2267 323.01 27.84C322.463 27.56 322.03 27.1867 321.71 26.72C321.39 26.2533 321.23 25.64 321.23 24.88C321.23 24.5733 321.283 24.26 321.39 23.94C321.51 23.6067 321.676 23.28 321.89 22.96C322.116 22.64 322.396 22.34 322.73 22.06C323.063 21.7667 323.456 21.5067 323.91 21.28C322.87 20.72 322.05 19.9733 321.45 19.04C320.863 18.1067 320.57 17.0133 320.57 15.76C320.57 14.7467 320.77 13.8333 321.17 13.02C321.583 12.1933 322.15 11.4933 322.87 10.92C323.603 10.3333 324.463 9.88667 325.45 9.58C326.45 9.27333 327.536 9.12 328.71 9.12C329.59 9.12 330.416 9.21333 331.19 9.4C331.963 9.57333 332.67 9.83333 333.31 10.18H339.21ZM355.211 17.38C355.211 16.74 355.117 16.14 354.931 15.58C354.757 15.0067 354.491 14.5067 354.131 14.08C353.771 13.6533 353.311 13.32 352.751 13.08C352.204 12.8267 351.564 12.7 350.831 12.7C349.404 12.7 348.277 13.1067 347.451 13.92C346.637 14.7333 346.117 15.8867 345.891 17.38H355.211ZM345.791 20.36C345.871 21.4133 346.057 22.3267 346.351 23.1C346.644 23.86 347.031 24.4933 347.511 25C347.991 25.4933 348.557 25.8667 349.211 26.12C349.877 26.36 350.611 26.48 351.411 26.48C352.211 26.48 352.897 26.3867 353.471 26.2C354.057 26.0133 354.564 25.8067 354.991 25.58C355.431 25.3533 355.811 25.1467 356.131 24.96C356.464 24.7733 356.784 24.68 357.091 24.68C357.504 24.68 357.811 24.8333 358.011 25.14L359.431 26.94C358.884 27.58 358.271 28.12 357.591 28.56C356.911 28.9867 356.197 29.3333 355.451 29.6C354.717 29.8533 353.964 30.0333 353.191 30.14C352.431 30.2467 351.691 30.3 350.971 30.3C349.544 30.3 348.217 30.0667 346.991 29.6C345.764 29.12 344.697 28.42 343.791 27.5C342.884 26.5667 342.171 25.42 341.651 24.06C341.131 22.6867 340.871 21.1 340.871 19.3C340.871 17.9 341.097 16.5867 341.551 15.36C342.004 14.12 342.651 13.0467 343.491 12.14C344.344 11.22 345.377 10.4933 346.591 9.96C347.817 9.42667 349.197 9.16 350.731 9.16C352.024 9.16 353.217 9.36667 354.311 9.78C355.404 10.1933 356.344 10.8 357.131 11.6C357.917 12.3867 358.531 13.36 358.971 14.52C359.424 15.6667 359.651 16.98 359.651 18.46C359.651 19.2067 359.571 19.7133 359.411 19.98C359.251 20.2333 358.944 20.36 358.491 20.36H345.791ZM370.003 30.32C368.216 30.32 366.843 29.82 365.883 28.82C364.936 27.8067 364.463 26.4133 364.463 24.64V13.18H362.363C362.096 13.18 361.869 13.0933 361.683 12.92C361.496 12.7467 361.403 12.4867 361.403 12.14V10.18L364.703 9.64L365.743 4.04C365.809 3.77333 365.936 3.56666 366.123 3.42C366.309 3.27333 366.549 3.2 366.843 3.2H369.403V9.66H374.883V13.18H369.403V24.3C369.403 24.94 369.556 25.44 369.863 25.8C370.183 26.16 370.616 26.34 371.163 26.34C371.469 26.34 371.723 26.3067 371.923 26.24C372.136 26.16 372.316 26.08 372.463 26C372.623 25.92 372.763 25.8467 372.883 25.78C373.003 25.7 373.123 25.66 373.243 25.66C373.389 25.66 373.509 25.7 373.603 25.78C373.696 25.8467 373.796 25.9533 373.903 26.1L375.383 28.5C374.663 29.1 373.836 29.5533 372.903 29.86C371.969 30.1667 371.003 30.32 370.003 30.32ZM392.892 9.48V30H387.932V9.48H392.892ZM393.572 3.5C393.572 3.92666 393.485 4.32666 393.312 4.7C393.139 5.07333 392.905 5.4 392.612 5.68C392.332 5.96 391.999 6.18667 391.612 6.36C391.225 6.52 390.812 6.6 390.372 6.6C389.945 6.6 389.539 6.52 389.152 6.36C388.779 6.18667 388.452 5.96 388.172 5.68C387.892 5.4 387.665 5.07333 387.492 4.7C387.332 4.32666 387.252 3.92666 387.252 3.5C387.252 3.06 387.332 2.64667 387.492 2.26C387.665 1.87333 387.892 1.54 388.172 1.26C388.452 0.979999 388.779 0.759999 389.152 0.599999C389.539 0.426666 389.945 0.339999 390.372 0.339999C390.812 0.339999 391.225 0.426666 391.612 0.599999C391.999 0.759999 392.332 0.979999 392.612 1.26C392.905 1.54 393.139 1.87333 393.312 2.26C393.485 2.64667 393.572 3.06 393.572 3.5ZM402.548 12C402.962 11.5867 403.395 11.2067 403.848 10.86C404.315 10.5 404.802 10.2 405.308 9.96C405.828 9.70667 406.382 9.51333 406.968 9.38C407.555 9.23333 408.195 9.16 408.888 9.16C410.008 9.16 411.002 9.35333 411.868 9.74C412.735 10.1133 413.455 10.6467 414.028 11.34C414.615 12.02 415.055 12.84 415.348 13.8C415.655 14.7467 415.808 15.7933 415.808 16.94V30H410.868V16.94C410.868 15.6867 410.582 14.72 410.008 14.04C409.435 13.3467 408.562 13 407.388 13C406.535 13 405.735 13.1933 404.988 13.58C404.242 13.9667 403.535 14.4933 402.868 15.16V30H397.928V9.48H400.948C401.588 9.48 402.008 9.78 402.208 10.38L402.548 12ZM433.026 13.48C432.893 13.6933 432.753 13.8467 432.606 13.94C432.46 14.02 432.273 14.06 432.046 14.06C431.806 14.06 431.546 13.9933 431.266 13.86C431 13.7267 430.686 13.58 430.326 13.42C429.966 13.2467 429.553 13.0933 429.086 12.96C428.633 12.8267 428.093 12.76 427.466 12.76C426.493 12.76 425.726 12.9667 425.166 13.38C424.62 13.7933 424.346 14.3333 424.346 15C424.346 15.44 424.486 15.8133 424.766 16.12C425.06 16.4133 425.44 16.6733 425.906 16.9C426.386 17.1267 426.926 17.3333 427.526 17.52C428.126 17.6933 428.733 17.8867 429.346 18.1C429.973 18.3133 430.586 18.56 431.186 18.84C431.786 19.1067 432.32 19.4533 432.786 19.88C433.266 20.2933 433.646 20.7933 433.926 21.38C434.22 21.9667 434.366 22.6733 434.366 23.5C434.366 24.4867 434.186 25.4 433.826 26.24C433.48 27.0667 432.96 27.7867 432.266 28.4C431.573 29 430.713 29.4733 429.686 29.82C428.673 30.1533 427.5 30.32 426.166 30.32C425.46 30.32 424.766 30.2533 424.086 30.12C423.42 30 422.773 29.8267 422.146 29.6C421.533 29.3733 420.96 29.1067 420.426 28.8C419.906 28.4933 419.446 28.16 419.046 27.8L420.186 25.92C420.333 25.6933 420.506 25.52 420.706 25.4C420.906 25.28 421.16 25.22 421.466 25.22C421.773 25.22 422.06 25.3067 422.326 25.48C422.606 25.6533 422.926 25.84 423.286 26.04C423.646 26.24 424.066 26.4267 424.546 26.6C425.04 26.7733 425.66 26.86 426.406 26.86C426.993 26.86 427.493 26.7933 427.906 26.66C428.333 26.5133 428.68 26.3267 428.946 26.1C429.226 25.8733 429.426 25.6133 429.546 25.32C429.68 25.0133 429.746 24.7 429.746 24.38C429.746 23.9 429.6 23.5067 429.306 23.2C429.026 22.8933 428.646 22.6267 428.166 22.4C427.7 22.1733 427.16 21.9733 426.546 21.8C425.946 21.6133 425.326 21.4133 424.686 21.2C424.06 20.9867 423.44 20.74 422.826 20.46C422.226 20.1667 421.686 19.8 421.206 19.36C420.74 18.92 420.36 18.38 420.066 17.74C419.786 17.1 419.646 16.3267 419.646 15.42C419.646 14.58 419.813 13.78 420.146 13.02C420.48 12.26 420.966 11.6 421.606 11.04C422.26 10.4667 423.066 10.0133 424.026 9.68C425 9.33333 426.12 9.16 427.386 9.16C428.8 9.16 430.086 9.39333 431.246 9.86C432.406 10.3267 433.373 10.94 434.146 11.7L433.026 13.48ZM443.205 9.48V30H438.245V9.48H443.205ZM443.885 3.5C443.885 3.92666 443.798 4.32666 443.625 4.7C443.451 5.07333 443.218 5.4 442.925 5.68C442.645 5.96 442.311 6.18667 441.925 6.36C441.538 6.52 441.125 6.6 440.685 6.6C440.258 6.6 439.851 6.52 439.465 6.36C439.091 6.18667 438.765 5.96 438.485 5.68C438.205 5.4 437.978 5.07333 437.805 4.7C437.645 4.32666 437.565 3.92666 437.565 3.5C437.565 3.06 437.645 2.64667 437.805 2.26C437.978 1.87333 438.205 1.54 438.485 1.26C438.765 0.979999 439.091 0.759999 439.465 0.599999C439.851 0.426666 440.258 0.339999 440.685 0.339999C441.125 0.339999 441.538 0.426666 441.925 0.599999C442.311 0.759999 442.645 0.979999 442.925 1.26C443.218 1.54 443.451 1.87333 443.625 2.26C443.798 2.64667 443.885 3.06 443.885 3.5ZM455.741 19.24C456.354 19.24 456.887 19.16 457.341 19C457.794 18.8267 458.167 18.5933 458.461 18.3C458.767 18.0067 458.994 17.6533 459.141 17.24C459.301 16.8267 459.381 16.3733 459.381 15.88C459.381 14.8667 459.074 14.0667 458.461 13.48C457.861 12.88 456.954 12.58 455.741 12.58C454.527 12.58 453.614 12.88 453.001 13.48C452.401 14.0667 452.101 14.8667 452.101 15.88C452.101 16.36 452.174 16.8067 452.321 17.22C452.481 17.6333 452.707 17.9933 453.001 18.3C453.307 18.5933 453.687 18.8267 454.141 19C454.607 19.16 455.141 19.24 455.741 19.24ZM461.321 30.92C461.321 30.52 461.201 30.1933 460.961 29.94C460.721 29.6867 460.394 29.4933 459.981 29.36C459.567 29.2133 459.081 29.1067 458.521 29.04C457.974 28.9733 457.387 28.9267 456.761 28.9C456.147 28.86 455.507 28.8267 454.841 28.8C454.187 28.7733 453.547 28.72 452.921 28.64C452.374 28.9467 451.927 29.3067 451.581 29.72C451.247 30.1333 451.081 30.6133 451.081 31.16C451.081 31.52 451.167 31.8533 451.341 32.16C451.527 32.48 451.814 32.7533 452.201 32.98C452.601 33.2067 453.114 33.38 453.741 33.5C454.367 33.6333 455.134 33.7 456.041 33.7C456.961 33.7 457.754 33.6267 458.421 33.48C459.087 33.3467 459.634 33.1533 460.061 32.9C460.501 32.66 460.821 32.3667 461.021 32.02C461.221 31.6867 461.321 31.32 461.321 30.92ZM466.241 10.18V12.02C466.241 12.6067 465.887 12.9667 465.181 13.1L463.341 13.44C463.621 14.1467 463.761 14.92 463.761 15.76C463.761 16.7733 463.554 17.6933 463.141 18.52C462.741 19.3333 462.181 20.0267 461.461 20.6C460.741 21.1733 459.887 21.62 458.901 21.94C457.927 22.2467 456.874 22.4 455.741 22.4C455.341 22.4 454.954 22.38 454.581 22.34C454.207 22.3 453.841 22.2467 453.481 22.18C452.841 22.5667 452.521 23 452.521 23.48C452.521 23.8933 452.707 24.2 453.081 24.4C453.467 24.5867 453.974 24.72 454.601 24.8C455.227 24.88 455.941 24.9333 456.741 24.96C457.541 24.9733 458.361 25.0133 459.201 25.08C460.041 25.1467 460.861 25.2667 461.661 25.44C462.461 25.6 463.174 25.86 463.801 26.22C464.427 26.58 464.927 27.0733 465.301 27.7C465.687 28.3133 465.881 29.1067 465.881 30.08C465.881 30.9867 465.654 31.8667 465.201 32.72C464.761 33.5733 464.114 34.3333 463.261 35C462.421 35.6667 461.381 36.2 460.141 36.6C458.914 37.0133 457.514 37.22 455.941 37.22C454.394 37.22 453.047 37.0667 451.901 36.76C450.754 36.4667 449.801 36.0667 449.041 35.56C448.281 35.0667 447.714 34.4933 447.341 33.84C446.967 33.1867 446.781 32.5067 446.781 31.8C446.781 30.84 447.067 30.04 447.641 29.4C448.227 28.7467 449.027 28.2267 450.041 27.84C449.494 27.56 449.061 27.1867 448.741 26.72C448.421 26.2533 448.261 25.64 448.261 24.88C448.261 24.5733 448.314 24.26 448.421 23.94C448.541 23.6067 448.707 23.28 448.921 22.96C449.147 22.64 449.427 22.34 449.761 22.06C450.094 21.7667 450.487 21.5067 450.941 21.28C449.901 20.72 449.081 19.9733 448.481 19.04C447.894 18.1067 447.601 17.0133 447.601 15.76C447.601 14.7467 447.801 13.8333 448.201 13.02C448.614 12.1933 449.181 11.4933 449.901 10.92C450.634 10.3333 451.494 9.88667 452.481 9.58C453.481 9.27333 454.567 9.12 455.741 9.12C456.621 9.12 457.447 9.21333 458.221 9.4C458.994 9.57333 459.701 9.83333 460.341 10.18H466.241ZM474.314 11.68C475.114 10.9333 475.994 10.3267 476.954 9.86C477.914 9.39333 479.04 9.16 480.334 9.16C481.454 9.16 482.447 9.35333 483.314 9.74C484.18 10.1133 484.9 10.6467 485.474 11.34C486.06 12.02 486.5 12.84 486.794 13.8C487.1 14.7467 487.254 15.7933 487.254 16.94V30H482.314V16.94C482.314 15.6867 482.027 14.72 481.454 14.04C480.88 13.3467 480.007 13 478.834 13C477.98 13 477.18 13.1933 476.434 13.58C475.687 13.9667 474.98 14.4933 474.314 15.16V30H469.374V0.279999H474.314V11.68ZM498.518 30.32C496.732 30.32 495.358 29.82 494.398 28.82C493.452 27.8067 492.978 26.4133 492.978 24.64V13.18H490.878C490.612 13.18 490.385 13.0933 490.198 12.92C490.012 12.7467 489.918 12.4867 489.918 12.14V10.18L493.218 9.64L494.258 4.04C494.325 3.77333 494.452 3.56666 494.638 3.42C494.825 3.27333 495.065 3.2 495.358 3.2H497.918V9.66H503.398V13.18H497.918V24.3C497.918 24.94 498.072 25.44 498.378 25.8C498.698 26.16 499.132 26.34 499.678 26.34C499.985 26.34 500.238 26.3067 500.438 26.24C500.652 26.16 500.832 26.08 500.978 26C501.138 25.92 501.278 25.8467 501.398 25.78C501.518 25.7 501.638 25.66 501.758 25.66C501.905 25.66 502.025 25.7 502.118 25.78C502.212 25.8467 502.312 25.9533 502.418 26.1L503.898 28.5C503.178 29.1 502.352 29.5533 501.418 29.86C500.485 30.1667 499.518 30.32 498.518 30.32ZM519.081 13.48C518.948 13.6933 518.808 13.8467 518.661 13.94C518.514 14.02 518.328 14.06 518.101 14.06C517.861 14.06 517.601 13.9933 517.321 13.86C517.054 13.7267 516.741 13.58 516.381 13.42C516.021 13.2467 515.608 13.0933 515.141 12.96C514.688 12.8267 514.148 12.76 513.521 12.76C512.548 12.76 511.781 12.9667 511.221 13.38C510.674 13.7933 510.401 14.3333 510.401 15C510.401 15.44 510.541 15.8133 510.821 16.12C511.114 16.4133 511.494 16.6733 511.961 16.9C512.441 17.1267 512.981 17.3333 513.581 17.52C514.181 17.6933 514.788 17.8867 515.401 18.1C516.028 18.3133 516.641 18.56 517.241 18.84C517.841 19.1067 518.374 19.4533 518.841 19.88C519.321 20.2933 519.701 20.7933 519.981 21.38C520.274 21.9667 520.421 22.6733 520.421 23.5C520.421 24.4867 520.241 25.4 519.881 26.24C519.534 27.0667 519.014 27.7867 518.321 28.4C517.628 29 516.768 29.4733 515.741 29.82C514.728 30.1533 513.554 30.32 512.221 30.32C511.514 30.32 510.821 30.2533 510.141 30.12C509.474 30 508.828 29.8267 508.201 29.6C507.588 29.3733 507.014 29.1067 506.481 28.8C505.961 28.4933 505.501 28.16 505.101 27.8L506.241 25.92C506.388 25.6933 506.561 25.52 506.761 25.4C506.961 25.28 507.214 25.22 507.521 25.22C507.828 25.22 508.114 25.3067 508.381 25.48C508.661 25.6533 508.981 25.84 509.341 26.04C509.701 26.24 510.121 26.4267 510.601 26.6C511.094 26.7733 511.714 26.86 512.461 26.86C513.048 26.86 513.548 26.7933 513.961 26.66C514.388 26.5133 514.734 26.3267 515.001 26.1C515.281 25.8733 515.481 25.6133 515.601 25.32C515.734 25.0133 515.801 24.7 515.801 24.38C515.801 23.9 515.654 23.5067 515.361 23.2C515.081 22.8933 514.701 22.6267 514.221 22.4C513.754 22.1733 513.214 21.9733 512.601 21.8C512.001 21.6133 511.381 21.4133 510.741 21.2C510.114 20.9867 509.494 20.74 508.881 20.46C508.281 20.1667 507.741 19.8 507.261 19.36C506.794 18.92 506.414 18.38 506.121 17.74C505.841 17.1 505.701 16.3267 505.701 15.42C505.701 14.58 505.868 13.78 506.201 13.02C506.534 12.26 507.021 11.6 507.661 11.04C508.314 10.4667 509.121 10.0133 510.081 9.68C511.054 9.33333 512.174 9.16 513.441 9.16C514.854 9.16 516.141 9.39333 517.301 9.86C518.461 10.3267 519.428 10.94 520.201 11.7L519.081 13.48ZM538.806 24.68C539.366 25.36 539.972 25.84 540.626 26.12C541.292 26.4 542.012 26.54 542.786 26.54C543.532 26.54 544.206 26.4 544.806 26.12C545.406 25.84 545.912 25.4133 546.326 24.84C546.752 24.2667 547.079 23.5467 547.306 22.68C547.532 21.8 547.646 20.7667 547.646 19.58C547.646 18.38 547.546 17.3667 547.346 16.54C547.159 15.7 546.886 15.02 546.526 14.5C546.166 13.98 545.726 13.6 545.206 13.36C544.699 13.12 544.119 13 543.466 13C542.439 13 541.566 13.22 540.846 13.66C540.126 14.0867 539.446 14.6933 538.806 15.48V24.68ZM538.546 12.28C539.386 11.3333 540.339 10.5667 541.406 9.98C542.472 9.39333 543.726 9.1 545.166 9.1C546.286 9.1 547.306 9.33333 548.226 9.8C549.159 10.2667 549.959 10.9467 550.626 11.84C551.306 12.72 551.826 13.8133 552.186 15.12C552.559 16.4133 552.746 17.9 552.746 19.58C552.746 21.1133 552.539 22.5333 552.126 23.84C551.712 25.1467 551.119 26.28 550.346 27.24C549.586 28.2 548.659 28.9533 547.566 29.5C546.486 30.0333 545.272 30.3 543.926 30.3C542.779 30.3 541.799 30.1267 540.986 29.78C540.172 29.42 539.446 28.9267 538.806 28.3V36.7H533.866V9.48H536.886C537.526 9.48 537.946 9.78 538.146 10.38L538.546 12.28ZM565.68 9.16C567.2 9.16 568.58 9.40667 569.82 9.9C571.073 10.3933 572.14 11.0933 573.02 12C573.913 12.9067 574.6 14.0133 575.08 15.32C575.56 16.6267 575.8 18.0867 575.8 19.7C575.8 21.3267 575.56 22.7933 575.08 24.1C574.6 25.4067 573.913 26.52 573.02 27.44C572.14 28.36 571.073 29.0667 569.82 29.56C568.58 30.0533 567.2 30.3 565.68 30.3C564.147 30.3 562.753 30.0533 561.5 29.56C560.247 29.0667 559.173 28.36 558.28 27.44C557.4 26.52 556.713 25.4067 556.22 24.1C555.74 22.7933 555.5 21.3267 555.5 19.7C555.5 18.0867 555.74 16.6267 556.22 15.32C556.713 14.0133 557.4 12.9067 558.28 12C559.173 11.0933 560.247 10.3933 561.5 9.9C562.753 9.40667 564.147 9.16 565.68 9.16ZM565.68 26.5C567.387 26.5 568.647 25.9267 569.46 24.78C570.287 23.6333 570.7 21.9533 570.7 19.74C570.7 17.5267 570.287 15.84 569.46 14.68C568.647 13.52 567.387 12.94 565.68 12.94C563.947 12.94 562.66 13.5267 561.82 14.7C560.993 15.86 560.58 17.54 560.58 19.74C560.58 21.94 560.993 23.62 561.82 24.78C562.66 25.9267 563.947 26.5 565.68 26.5ZM608.517 9.48L601.997 30H598.037C597.584 30 597.271 29.7067 597.097 29.12L593.417 17.26C593.297 16.86 593.184 16.4667 593.077 16.08C592.984 15.68 592.904 15.28 592.837 14.88C592.757 15.28 592.664 15.6867 592.557 16.1C592.464 16.5 592.357 16.9 592.237 17.3L588.497 29.12C588.337 29.7067 587.984 30 587.437 30H583.637L577.137 9.48H581.077C581.437 9.48 581.744 9.56667 581.997 9.74C582.251 9.91333 582.417 10.1333 582.497 10.4L585.437 21.36C585.584 21.96 585.711 22.5467 585.817 23.12C585.937 23.6933 586.037 24.2667 586.117 24.84C586.264 24.2667 586.417 23.6933 586.577 23.12C586.751 22.5467 586.931 21.96 587.117 21.36L590.517 10.36C590.597 10.0933 590.751 9.87333 590.977 9.7C591.217 9.52667 591.504 9.44 591.837 9.44H594.017C594.364 9.44 594.657 9.52667 594.897 9.7C595.151 9.87333 595.317 10.0933 595.397 10.36L598.697 21.36C598.871 21.96 599.031 22.5533 599.177 23.14C599.337 23.7133 599.491 24.2867 599.637 24.86C599.811 23.7267 600.057 22.56 600.377 21.36L603.397 10.4C603.491 10.1333 603.657 9.91333 603.897 9.74C604.137 9.56667 604.424 9.48 604.757 9.48H608.517ZM624.195 17.38C624.195 16.74 624.102 16.14 623.915 15.58C623.742 15.0067 623.475 14.5067 623.115 14.08C622.755 13.6533 622.295 13.32 621.735 13.08C621.188 12.8267 620.548 12.7 619.815 12.7C618.388 12.7 617.262 13.1067 616.435 13.92C615.622 14.7333 615.102 15.8867 614.875 17.38H624.195ZM614.775 20.36C614.855 21.4133 615.042 22.3267 615.335 23.1C615.628 23.86 616.015 24.4933 616.495 25C616.975 25.4933 617.542 25.8667 618.195 26.12C618.862 26.36 619.595 26.48 620.395 26.48C621.195 26.48 621.882 26.3867 622.455 26.2C623.042 26.0133 623.548 25.8067 623.975 25.58C624.415 25.3533 624.795 25.1467 625.115 24.96C625.448 24.7733 625.768 24.68 626.075 24.68C626.488 24.68 626.795 24.8333 626.995 25.14L628.415 26.94C627.868 27.58 627.255 28.12 626.575 28.56C625.895 28.9867 625.182 29.3333 624.435 29.6C623.702 29.8533 622.948 30.0333 622.175 30.14C621.415 30.2467 620.675 30.3 619.955 30.3C618.528 30.3 617.202 30.0667 615.975 29.6C614.748 29.12 613.682 28.42 612.775 27.5C611.868 26.5667 611.155 25.42 610.635 24.06C610.115 22.6867 609.855 21.1 609.855 19.3C609.855 17.9 610.082 16.5867 610.535 15.36C610.988 14.12 611.635 13.0467 612.475 12.14C613.328 11.22 614.362 10.4933 615.575 9.96C616.802 9.42667 618.182 9.16 619.715 9.16C621.008 9.16 622.202 9.36667 623.295 9.78C624.388 10.1933 625.328 10.8 626.115 11.6C626.902 12.3867 627.515 13.36 627.955 14.52C628.408 15.6667 628.635 16.98 628.635 18.46C628.635 19.2067 628.555 19.7133 628.395 19.98C628.235 20.2333 627.928 20.36 627.475 20.36H614.775ZM637.002 13.04C637.642 11.8133 638.402 10.8533 639.282 10.16C640.162 9.45333 641.202 9.1 642.402 9.1C643.349 9.1 644.109 9.30667 644.682 9.72L644.362 13.42C644.296 13.66 644.196 13.8333 644.062 13.94C643.942 14.0333 643.776 14.08 643.562 14.08C643.362 14.08 643.062 14.0467 642.662 13.98C642.276 13.9133 641.896 13.88 641.522 13.88C640.976 13.88 640.489 13.96 640.062 14.12C639.636 14.28 639.249 14.5133 638.902 14.82C638.569 15.1133 638.269 15.4733 638.002 15.9C637.749 16.3267 637.509 16.8133 637.282 17.36V30H632.342V9.48H635.242C635.749 9.48 636.102 9.57333 636.302 9.76C636.502 9.93333 636.636 10.2533 636.702 10.72L637.002 13.04ZM659.898 17.38C659.898 16.74 659.805 16.14 659.618 15.58C659.445 15.0067 659.178 14.5067 658.818 14.08C658.458 13.6533 657.998 13.32 657.438 13.08C656.892 12.8267 656.252 12.7 655.518 12.7C654.092 12.7 652.965 13.1067 652.138 13.92C651.325 14.7333 650.805 15.8867 650.578 17.38H659.898ZM650.478 20.36C650.558 21.4133 650.745 22.3267 651.038 23.1C651.332 23.86 651.718 24.4933 652.198 25C652.678 25.4933 653.245 25.8667 653.898 26.12C654.565 26.36 655.298 26.48 656.098 26.48C656.898 26.48 657.585 26.3867 658.158 26.2C658.745 26.0133 659.252 25.8067 659.678 25.58C660.118 25.3533 660.498 25.1467 660.818 24.96C661.152 24.7733 661.472 24.68 661.778 24.68C662.192 24.68 662.498 24.8333 662.698 25.14L664.118 26.94C663.572 27.58 662.958 28.12 662.278 28.56C661.598 28.9867 660.885 29.3333 660.138 29.6C659.405 29.8533 658.652 30.0333 657.878 30.14C657.118 30.2467 656.378 30.3 655.658 30.3C654.232 30.3 652.905 30.0667 651.678 29.6C650.452 29.12 649.385 28.42 648.478 27.5C647.572 26.5667 646.858 25.42 646.338 24.06C645.818 22.6867 645.558 21.1 645.558 19.3C645.558 17.9 645.785 16.5867 646.238 15.36C646.692 14.12 647.338 13.0467 648.178 12.14C649.032 11.22 650.065 10.4933 651.278 9.96C652.505 9.42667 653.885 9.16 655.418 9.16C656.712 9.16 657.905 9.36667 658.998 9.78C660.092 10.1933 661.032 10.8 661.818 11.6C662.605 12.3867 663.218 13.36 663.658 14.52C664.112 15.6667 664.338 16.98 664.338 18.46C664.338 19.2067 664.258 19.7133 664.098 19.98C663.938 20.2333 663.632 20.36 663.178 20.36H650.478ZM680.925 14.72C680.365 14.04 679.752 13.56 679.085 13.28C678.432 13 677.725 12.86 676.965 12.86C676.219 12.86 675.545 13 674.945 13.28C674.345 13.56 673.832 13.9867 673.405 14.56C672.979 15.12 672.652 15.84 672.425 16.72C672.199 17.5867 672.085 18.6133 672.085 19.8C672.085 21 672.179 22.02 672.365 22.86C672.565 23.6867 672.845 24.3667 673.205 24.9C673.565 25.42 674.005 25.8 674.525 26.04C675.045 26.2667 675.625 26.38 676.265 26.38C677.292 26.38 678.165 26.1667 678.885 25.74C679.605 25.3133 680.285 24.7067 680.925 23.92V14.72ZM685.865 0.279999V30H682.845C682.192 30 681.779 29.7 681.605 29.1L681.185 27.12C680.359 28.0667 679.405 28.8333 678.325 29.42C677.259 30.0067 676.012 30.3 674.585 30.3C673.465 30.3 672.439 30.0667 671.505 29.6C670.572 29.1333 669.765 28.46 669.085 27.58C668.419 26.6867 667.899 25.5867 667.525 24.28C667.165 22.9733 666.985 21.48 666.985 19.8C666.985 18.28 667.192 16.8667 667.605 15.56C668.019 14.2533 668.612 13.12 669.385 12.16C670.159 11.2 671.085 10.4533 672.165 9.92C673.245 9.37333 674.459 9.1 675.805 9.1C676.952 9.1 677.932 9.28 678.745 9.64C679.559 10 680.285 10.4867 680.925 11.1V0.279999H685.865ZM705.407 24.68C705.967 25.36 706.574 25.84 707.227 26.12C707.894 26.4 708.594 26.54 709.327 26.54C710.087 26.54 710.767 26.4067 711.367 26.14C711.981 25.86 712.501 25.4333 712.927 24.86C713.354 24.2733 713.681 23.5333 713.907 22.64C714.134 21.7333 714.247 20.6533 714.247 19.4C714.247 17.1467 713.874 15.52 713.127 14.52C712.381 13.5067 711.307 13 709.907 13C708.961 13 708.134 13.22 707.427 13.66C706.721 14.0867 706.047 14.6933 705.407 15.48V24.68ZM705.407 12C706.234 11.1333 707.147 10.4467 708.147 9.94C709.161 9.42 710.314 9.16 711.607 9.16C712.794 9.16 713.861 9.39333 714.807 9.86C715.767 10.3267 716.581 11 717.247 11.88C717.927 12.7467 718.447 13.8 718.807 15.04C719.167 16.28 719.347 17.6733 719.347 19.22C719.347 20.8867 719.141 22.4 718.727 23.76C718.314 25.12 717.721 26.2867 716.947 27.26C716.187 28.22 715.267 28.9667 714.187 29.5C713.107 30.0333 711.907 30.3 710.587 30.3C709.947 30.3 709.367 30.2333 708.847 30.1C708.327 29.98 707.847 29.8067 707.407 29.58C706.967 29.3533 706.561 29.08 706.187 28.76C705.827 28.4267 705.481 28.06 705.147 27.66L704.927 29.04C704.847 29.3867 704.707 29.6333 704.507 29.78C704.321 29.9267 704.061 30 703.727 30H700.467V0.279999H705.407V12ZM741.217 9.48L730.037 35.64C729.89 35.9867 729.697 36.2467 729.457 36.42C729.23 36.6067 728.877 36.7 728.397 36.7H724.717L728.557 28.46L720.257 9.48H724.597C724.983 9.48 725.283 9.57333 725.497 9.76C725.723 9.94667 725.89 10.16 725.997 10.4L730.357 21.04C730.503 21.4 730.623 21.76 730.717 22.12C730.823 22.48 730.923 22.8467 731.017 23.22C731.137 22.8467 731.257 22.48 731.377 22.12C731.497 21.7467 731.63 21.38 731.777 21.02L735.897 10.4C736.003 10.1333 736.177 9.91333 736.417 9.74C736.67 9.56667 736.95 9.48 737.257 9.48H741.217Z" fill="white"/>
<path d="M777.001 15.5V27.2C775.535 28.28 773.968 29.0733 772.301 29.58C770.648 30.0733 768.875 30.32 766.981 30.32C764.621 30.32 762.481 29.9533 760.561 29.22C758.655 28.4867 757.021 27.4667 755.661 26.16C754.315 24.8533 753.275 23.2933 752.541 21.48C751.808 19.6667 751.441 17.6867 751.441 15.54C751.441 13.3667 751.795 11.3733 752.501 9.56C753.208 7.74666 754.208 6.18666 755.501 4.88C756.808 3.57333 758.388 2.56 760.241 1.84C762.095 1.12 764.175 0.76 766.481 0.76C767.655 0.76 768.748 0.853333 769.761 1.04C770.788 1.22667 771.735 1.48667 772.601 1.82C773.481 2.14 774.281 2.53333 775.001 3C775.721 3.46667 776.381 3.98 776.981 4.54L775.441 6.98C775.201 7.36667 774.888 7.60667 774.501 7.7C774.115 7.78 773.695 7.68 773.241 7.4C772.801 7.14667 772.361 6.89333 771.921 6.64C771.481 6.38667 770.988 6.16667 770.441 5.98C769.908 5.79333 769.301 5.64 768.621 5.52C767.955 5.4 767.181 5.34 766.301 5.34C764.875 5.34 763.581 5.58 762.421 6.06C761.275 6.54 760.295 7.22667 759.481 8.12C758.668 9.01333 758.041 10.0867 757.601 11.34C757.161 12.5933 756.941 13.9933 756.941 15.54C756.941 17.1933 757.175 18.6733 757.641 19.98C758.121 21.2733 758.788 22.3733 759.641 23.28C760.508 24.1733 761.548 24.86 762.761 25.34C763.975 25.8067 765.328 26.04 766.821 26.04C767.888 26.04 768.841 25.9267 769.681 25.7C770.521 25.4733 771.341 25.1667 772.141 24.78V19.54H768.501C768.155 19.54 767.881 19.4467 767.681 19.26C767.495 19.06 767.401 18.82 767.401 18.54V15.5H777.001ZM794.39 17.38C794.39 16.74 794.297 16.14 794.11 15.58C793.937 15.0067 793.67 14.5067 793.31 14.08C792.95 13.6533 792.49 13.32 791.93 13.08C791.384 12.8267 790.744 12.7 790.01 12.7C788.584 12.7 787.457 13.1067 786.63 13.92C785.817 14.7333 785.297 15.8867 785.07 17.38H794.39ZM784.97 20.36C785.05 21.4133 785.237 22.3267 785.53 23.1C785.824 23.86 786.21 24.4933 786.69 25C787.17 25.4933 787.737 25.8667 788.39 26.12C789.057 26.36 789.79 26.48 790.59 26.48C791.39 26.48 792.077 26.3867 792.65 26.2C793.237 26.0133 793.744 25.8067 794.17 25.58C794.61 25.3533 794.99 25.1467 795.31 24.96C795.644 24.7733 795.964 24.68 796.27 24.68C796.684 24.68 796.99 24.8333 797.19 25.14L798.61 26.94C798.064 27.58 797.45 28.12 796.77 28.56C796.09 28.9867 795.377 29.3333 794.63 29.6C793.897 29.8533 793.144 30.0333 792.37 30.14C791.61 30.2467 790.87 30.3 790.15 30.3C788.724 30.3 787.397 30.0667 786.17 29.6C784.944 29.12 783.877 28.42 782.97 27.5C782.064 26.5667 781.35 25.42 780.83 24.06C780.31 22.6867 780.05 21.1 780.05 19.3C780.05 17.9 780.277 16.5867 780.73 15.36C781.184 14.12 781.83 13.0467 782.67 12.14C783.524 11.22 784.557 10.4933 785.77 9.96C786.997 9.42667 788.377 9.16 789.91 9.16C791.204 9.16 792.397 9.36667 793.49 9.78C794.584 10.1933 795.524 10.8 796.31 11.6C797.097 12.3867 797.71 13.36 798.15 14.52C798.604 15.6667 798.83 16.98 798.83 18.46C798.83 19.2067 798.75 19.7133 798.59 19.98C798.43 20.2333 798.124 20.36 797.67 20.36H784.97ZM807.158 12C807.571 11.5867 808.004 11.2067 808.458 10.86C808.924 10.5 809.411 10.2 809.918 9.96C810.438 9.70667 810.991 9.51333 811.578 9.38C812.164 9.23333 812.804 9.16 813.498 9.16C814.618 9.16 815.611 9.35333 816.478 9.74C817.344 10.1133 818.064 10.6467 818.638 11.34C819.224 12.02 819.664 12.84 819.958 13.8C820.264 14.7467 820.418 15.7933 820.418 16.94V30H815.478V16.94C815.478 15.6867 815.191 14.72 814.618 14.04C814.044 13.3467 813.171 13 811.998 13C811.144 13 810.344 13.1933 809.598 13.58C808.851 13.9667 808.144 14.4933 807.478 15.16V30H802.538V9.48H805.558C806.198 9.48 806.618 9.78 806.818 10.38L807.158 12ZM841.176 19.08L837.656 9.46C837.482 9.03333 837.302 8.52667 837.116 7.94C836.929 7.35333 836.742 6.72 836.556 6.04C836.382 6.72 836.202 7.36 836.016 7.96C835.829 8.54667 835.649 9.06 835.476 9.5L831.976 19.08H841.176ZM850.676 30H846.516C846.049 30 845.669 29.8867 845.376 29.66C845.082 29.42 844.862 29.1267 844.716 28.78L842.556 22.88H830.576L828.416 28.78C828.309 29.0867 828.102 29.3667 827.796 29.62C827.489 29.8733 827.109 30 826.656 30H822.456L833.836 1.08H839.316L850.676 30ZM859.069 30H853.669V1.08H859.069V30Z" fill="#00AAE6"/>
</svg>
