<svg width="752" height="53" viewBox="0 0 752 53" fill="none" xmlns="http://www.w3.org/2000/svg">
<path d="M44.0449 26.94C44.0449 30.6967 43.4499 34.115 42.2599 37.195C41.0699 40.275 39.3899 42.9117 37.2199 45.105C35.0499 47.2983 32.4366 49.0017 29.3799 50.215C26.3466 51.405 22.9866 52 19.2999 52H0.574922V1.845H19.2999C22.9866 1.845 26.3466 2.45166 29.3799 3.665C32.4366 4.855 35.0499 6.55833 37.2199 8.775C39.3899 10.9683 41.0699 13.605 42.2599 16.685C43.4499 19.765 44.0449 23.1833 44.0449 26.94ZM37.0799 26.94C37.0799 23.86 36.6599 21.1067 35.8199 18.68C34.9799 16.2533 33.7899 14.2 32.2499 12.52C30.7099 10.84 28.8433 9.55667 26.6499 8.67C24.4566 7.78333 22.0066 7.34 19.2999 7.34H7.36492V46.505H19.2999C22.0066 46.505 24.4566 46.0617 26.6499 45.175C28.8433 44.2883 30.7099 43.0167 32.2499 41.36C33.7899 39.68 34.9799 37.6267 35.8199 35.2C36.6599 32.7733 37.0799 30.02 37.0799 26.94ZM58.2533 16.545V52H52.0233V16.545H58.2533ZM59.5833 5.415C59.5833 6.02166 59.4549 6.59333 59.1983 7.13C58.9649 7.64333 58.6383 8.11 58.2183 8.53C57.8216 8.92666 57.3433 9.24167 56.7833 9.475C56.2466 9.70833 55.6749 9.825 55.0683 9.825C54.4616 9.825 53.8899 9.70833 53.3533 9.475C52.8399 9.24167 52.3849 8.92666 51.9883 8.53C51.5916 8.11 51.2766 7.64333 51.0433 7.13C50.8099 6.59333 50.6933 6.02166 50.6933 5.415C50.6933 4.80833 50.8099 4.23666 51.0433 3.7C51.2766 3.14 51.5916 2.66166 51.9883 2.265C52.3849 1.845 52.8399 1.51833 53.3533 1.285C53.8899 1.05166 54.4616 0.934996 55.0683 0.934996C55.6749 0.934996 56.2466 1.05166 56.7833 1.285C57.3433 1.51833 57.8216 1.845 58.2183 2.265C58.6383 2.66166 58.9649 3.14 59.1983 3.7C59.4549 4.23666 59.5833 4.80833 59.5833 5.415ZM89.1397 22.39C88.8597 22.9033 88.428 23.16 87.8447 23.16C87.4947 23.16 87.098 23.0317 86.6547 22.775C86.2114 22.5183 85.663 22.2383 85.0097 21.935C84.3797 21.6083 83.6214 21.3167 82.7347 21.06C81.848 20.78 80.798 20.64 79.5847 20.64C78.5347 20.64 77.5897 20.78 76.7497 21.06C75.9097 21.3167 75.1864 21.6783 74.5797 22.145C73.9964 22.6117 73.5414 23.16 73.2147 23.79C72.9114 24.3967 72.7597 25.0617 72.7597 25.785C72.7597 26.695 73.0164 27.4533 73.5297 28.06C74.0664 28.6667 74.7664 29.1917 75.6297 29.635C76.493 30.0783 77.473 30.475 78.5697 30.825C79.6664 31.1517 80.7864 31.5133 81.9297 31.91C83.0964 32.2833 84.228 32.7033 85.3247 33.17C86.4214 33.6367 87.4014 34.22 88.2647 34.92C89.128 35.62 89.8164 36.4833 90.3297 37.51C90.8664 38.5133 91.1347 39.7267 91.1347 41.15C91.1347 42.7833 90.843 44.3 90.2597 45.7C89.6764 47.0767 88.813 48.2783 87.6697 49.305C86.5264 50.3083 85.1264 51.1017 83.4697 51.685C81.813 52.2683 79.8997 52.56 77.7297 52.56C75.2564 52.56 73.0164 52.1633 71.0097 51.37C69.003 50.5533 67.2997 49.515 65.8997 48.255L67.3697 45.875C67.5564 45.5717 67.778 45.3383 68.0347 45.175C68.2914 45.0117 68.618 44.93 69.0147 44.93C69.4347 44.93 69.878 45.0933 70.3447 45.42C70.8114 45.7467 71.3714 46.1083 72.0247 46.505C72.7014 46.9017 73.518 47.2633 74.4747 47.59C75.4314 47.9167 76.6214 48.08 78.0447 48.08C79.258 48.08 80.3197 47.9283 81.2297 47.625C82.1397 47.2983 82.898 46.8667 83.5047 46.33C84.1114 45.7933 84.5547 45.175 84.8347 44.475C85.138 43.775 85.2897 43.0283 85.2897 42.235C85.2897 41.255 85.0214 40.45 84.4847 39.82C83.9714 39.1667 83.283 38.6183 82.4197 38.175C81.5564 37.7083 80.5647 37.3117 79.4447 36.985C78.348 36.635 77.2164 36.2733 76.0497 35.9C74.9064 35.5267 73.7747 35.1067 72.6547 34.64C71.558 34.15 70.578 33.5433 69.7147 32.82C68.8514 32.0967 68.1514 31.21 67.6147 30.16C67.1014 29.0867 66.8447 27.7917 66.8447 26.275C66.8447 24.9217 67.1247 23.6267 67.6847 22.39C68.2447 21.13 69.0614 20.0333 70.1347 19.1C71.208 18.1433 72.5264 17.385 74.0897 16.825C75.653 16.265 77.438 15.985 79.4447 15.985C81.778 15.985 83.8664 16.3583 85.7097 17.105C87.5764 17.8283 89.1864 18.8317 90.5397 20.115L89.1397 22.39ZM123.448 22.845C123.261 23.1017 123.075 23.3 122.888 23.44C122.701 23.58 122.445 23.65 122.118 23.65C121.768 23.65 121.383 23.51 120.963 23.23C120.543 22.9267 120.018 22.6 119.388 22.25C118.781 21.9 118.023 21.585 117.113 21.305C116.226 21.0017 115.13 20.85 113.823 20.85C112.073 20.85 110.533 21.165 109.203 21.795C107.873 22.4017 106.753 23.2883 105.843 24.455C104.956 25.6217 104.28 27.0333 103.813 28.69C103.37 30.3467 103.148 32.2017 103.148 34.255C103.148 36.4017 103.393 38.315 103.883 39.995C104.373 41.6517 105.061 43.0517 105.948 44.195C106.858 45.315 107.943 46.1783 109.203 46.785C110.486 47.3683 111.921 47.66 113.508 47.66C115.025 47.66 116.273 47.485 117.253 47.135C118.233 46.7617 119.038 46.3533 119.668 45.91C120.321 45.4667 120.858 45.07 121.278 44.72C121.721 44.3467 122.153 44.16 122.573 44.16C123.086 44.16 123.483 44.3583 123.763 44.755L125.513 47.03C124.743 47.9867 123.868 48.8033 122.888 49.48C121.908 50.1567 120.846 50.7283 119.703 51.195C118.583 51.6383 117.405 51.965 116.168 52.175C114.931 52.385 113.671 52.49 112.388 52.49C110.171 52.49 108.106 52.0817 106.193 51.265C104.303 50.4483 102.658 49.27 101.258 47.73C99.8579 46.1667 98.7612 44.2533 97.9679 41.99C97.1746 39.7267 96.7779 37.1483 96.7779 34.255C96.7779 31.6183 97.1396 29.18 97.8629 26.94C98.6096 24.7 99.6829 22.775 101.083 21.165C102.506 19.5317 104.245 18.26 106.298 17.35C108.375 16.44 110.755 15.985 113.438 15.985C115.935 15.985 118.128 16.3933 120.018 17.21C121.931 18.0033 123.623 19.135 125.093 20.605L123.448 22.845ZM146.53 15.985C149.12 15.985 151.454 16.4167 153.53 17.28C155.607 18.1433 157.38 19.3683 158.85 20.955C160.32 22.5417 161.44 24.4667 162.21 26.73C163.004 28.97 163.4 31.4783 163.4 34.255C163.4 37.055 163.004 39.575 162.21 41.815C161.44 44.055 160.32 45.9683 158.85 47.555C157.38 49.1417 155.607 50.3667 153.53 51.23C151.454 52.07 149.12 52.49 146.53 52.49C143.917 52.49 141.56 52.07 139.46 51.23C137.384 50.3667 135.61 49.1417 134.14 47.555C132.67 45.9683 131.539 44.055 130.745 41.815C129.975 39.575 129.59 37.055 129.59 34.255C129.59 31.4783 129.975 28.97 130.745 26.73C131.539 24.4667 132.67 22.5417 134.14 20.955C135.61 19.3683 137.384 18.1433 139.46 17.28C141.56 16.4167 143.917 15.985 146.53 15.985ZM146.53 47.625C150.03 47.625 152.644 46.4583 154.37 44.125C156.097 41.7683 156.96 38.49 156.96 34.29C156.96 30.0667 156.097 26.7767 154.37 24.42C152.644 22.0633 150.03 20.885 146.53 20.885C144.757 20.885 143.205 21.1883 141.875 21.795C140.569 22.4017 139.472 23.2767 138.585 24.42C137.722 25.5633 137.069 26.975 136.625 28.655C136.205 30.3117 135.995 32.19 135.995 34.29C135.995 38.49 136.859 41.7683 138.585 44.125C140.335 46.4583 142.984 47.625 146.53 47.625ZM200.725 16.545L186.27 52H180.67L166.215 16.545H171.29C171.803 16.545 172.223 16.6733 172.55 16.93C172.877 17.1867 173.098 17.49 173.215 17.84L182.21 40.66C182.49 41.5233 182.735 42.3633 182.945 43.18C183.155 43.9967 183.353 44.8133 183.54 45.63C183.727 44.8133 183.925 43.9967 184.135 43.18C184.345 42.3633 184.602 41.5233 184.905 40.66L194.005 17.84C194.145 17.4667 194.378 17.1633 194.705 16.93C195.032 16.6733 195.417 16.545 195.86 16.545H200.725ZM229.212 30.405C229.212 28.9583 229.002 27.64 228.582 26.45C228.185 25.2367 227.59 24.1983 226.797 23.335C226.027 22.4483 225.082 21.7717 223.962 21.305C222.842 20.815 221.57 20.57 220.147 20.57C217.16 20.57 214.792 21.445 213.042 23.195C211.315 24.9217 210.242 27.325 209.822 30.405H229.212ZM234.252 47.03C233.482 47.9633 232.56 48.78 231.487 49.48C230.414 50.1567 229.259 50.7167 228.022 51.16C226.809 51.6033 225.549 51.93 224.242 52.14C222.935 52.3733 221.64 52.49 220.357 52.49C217.907 52.49 215.644 52.0817 213.567 51.265C211.514 50.425 209.729 49.2117 208.212 47.625C206.719 46.015 205.552 44.0317 204.712 41.675C203.872 39.3183 203.452 36.6117 203.452 33.555C203.452 31.0817 203.825 28.7717 204.572 26.625C205.342 24.4783 206.439 22.6233 207.862 21.06C209.285 19.4733 211.024 18.2367 213.077 17.35C215.13 16.44 217.44 15.985 220.007 15.985C222.13 15.985 224.09 16.3467 225.887 17.07C227.707 17.77 229.27 18.7967 230.577 20.15C231.907 21.48 232.945 23.1367 233.692 25.12C234.439 27.08 234.812 29.32 234.812 31.84C234.812 32.82 234.707 33.4733 234.497 33.8C234.287 34.1267 233.89 34.29 233.307 34.29H209.612C209.682 36.53 209.985 38.4783 210.522 40.135C211.082 41.7917 211.852 43.18 212.832 44.3C213.812 45.3967 214.979 46.225 216.332 46.785C217.685 47.3217 219.202 47.59 220.882 47.59C222.445 47.59 223.787 47.415 224.907 47.065C226.05 46.6917 227.03 46.295 227.847 45.875C228.664 45.455 229.34 45.07 229.877 44.72C230.437 44.3467 230.915 44.16 231.312 44.16C231.825 44.16 232.222 44.3583 232.502 44.755L234.252 47.03ZM248.379 23.65C249.499 21.2233 250.876 19.3333 252.509 17.98C254.143 16.6033 256.138 15.915 258.494 15.915C259.241 15.915 259.953 15.9967 260.629 16.16C261.329 16.3233 261.948 16.58 262.484 16.93L262.029 21.585C261.889 22.1683 261.539 22.46 260.979 22.46C260.653 22.46 260.174 22.39 259.544 22.25C258.914 22.11 258.203 22.04 257.409 22.04C256.289 22.04 255.286 22.2033 254.399 22.53C253.536 22.8567 252.754 23.3467 252.054 24C251.378 24.63 250.759 25.4233 250.199 26.38C249.663 27.3133 249.173 28.3867 248.729 29.6V52H242.464V16.545H246.034C246.711 16.545 247.178 16.6733 247.434 16.93C247.691 17.1867 247.866 17.63 247.959 18.26L248.379 23.65ZM326.474 1.845V52H319.684V29.18H292.629V52H285.839V1.845H292.629V24.21H319.684V1.845H326.474ZM351.677 15.985C354.267 15.985 356.6 16.4167 358.677 17.28C360.754 18.1433 362.527 19.3683 363.997 20.955C365.467 22.5417 366.587 24.4667 367.357 26.73C368.15 28.97 368.547 31.4783 368.547 34.255C368.547 37.055 368.15 39.575 367.357 41.815C366.587 44.055 365.467 45.9683 363.997 47.555C362.527 49.1417 360.754 50.3667 358.677 51.23C356.6 52.07 354.267 52.49 351.677 52.49C349.064 52.49 346.707 52.07 344.607 51.23C342.53 50.3667 340.757 49.1417 339.287 47.555C337.817 45.9683 336.685 44.055 335.892 41.815C335.122 39.575 334.737 37.055 334.737 34.255C334.737 31.4783 335.122 28.97 335.892 26.73C336.685 24.4667 337.817 22.5417 339.287 20.955C340.757 19.3683 342.53 18.1433 344.607 17.28C346.707 16.4167 349.064 15.985 351.677 15.985ZM351.677 47.625C355.177 47.625 357.79 46.4583 359.517 44.125C361.244 41.7683 362.107 38.49 362.107 34.29C362.107 30.0667 361.244 26.7767 359.517 24.42C357.79 22.0633 355.177 20.885 351.677 20.885C349.904 20.885 348.352 21.1883 347.022 21.795C345.715 22.4017 344.619 23.2767 343.732 24.42C342.869 25.5633 342.215 26.975 341.772 28.655C341.352 30.3117 341.142 32.19 341.142 34.29C341.142 38.49 342.005 41.7683 343.732 44.125C345.482 46.4583 348.13 47.625 351.677 47.625ZM424.797 16.545L413.317 52H408.382C407.775 52 407.355 51.6033 407.122 50.81L399.282 26.765C399.095 26.2283 398.943 25.6917 398.827 25.155C398.71 24.595 398.593 24.0467 398.477 23.51C398.36 24.0467 398.243 24.595 398.127 25.155C398.01 25.6917 397.858 26.24 397.672 26.8L389.692 50.81C389.482 51.6033 389.015 52 388.292 52H383.602L372.122 16.545H377.022C377.512 16.545 377.92 16.6733 378.247 16.93C378.597 17.1867 378.83 17.49 378.947 17.84L385.737 40.66C386.133 42.34 386.448 43.9267 386.682 45.42C386.892 44.65 387.102 43.8683 387.312 43.075C387.545 42.2817 387.79 41.4767 388.047 40.66L395.537 17.7C395.653 17.35 395.852 17.0583 396.132 16.825C396.435 16.5917 396.797 16.475 397.217 16.475H399.947C400.413 16.475 400.798 16.5917 401.102 16.825C401.405 17.0583 401.615 17.35 401.732 17.7L409.047 40.66C409.303 41.4767 409.537 42.2817 409.747 43.075C409.957 43.8683 410.155 44.65 410.342 45.42C410.458 44.65 410.598 43.88 410.762 43.11C410.948 42.3167 411.147 41.5 411.357 40.66L418.287 17.84C418.403 17.4667 418.625 17.1633 418.952 16.93C419.278 16.6733 419.663 16.545 420.107 16.545H424.797ZM464.903 32.015V52H458.113V32.015L439.738 1.845H445.688C446.295 1.845 446.773 1.99666 447.123 2.3C447.473 2.58 447.776 2.95333 448.033 3.42L459.513 22.915C459.933 23.7317 460.318 24.5017 460.668 25.225C461.018 25.925 461.321 26.6367 461.578 27.36C461.835 26.6367 462.126 25.925 462.453 25.225C462.78 24.5017 463.141 23.7317 463.538 22.915L474.983 3.42C475.193 3.02333 475.485 2.66166 475.858 2.335C476.231 2.00833 476.71 1.845 477.293 1.845H483.278L464.903 32.015ZM495.573 15.985C498.163 15.985 500.497 16.4167 502.573 17.28C504.65 18.1433 506.423 19.3683 507.893 20.955C509.363 22.5417 510.483 24.4667 511.253 26.73C512.047 28.97 512.443 31.4783 512.443 34.255C512.443 37.055 512.047 39.575 511.253 41.815C510.483 44.055 509.363 45.9683 507.893 47.555C506.423 49.1417 504.65 50.3667 502.573 51.23C500.497 52.07 498.163 52.49 495.573 52.49C492.96 52.49 490.603 52.07 488.503 51.23C486.427 50.3667 484.653 49.1417 483.183 47.555C481.713 45.9683 480.582 44.055 479.788 41.815C479.018 39.575 478.633 37.055 478.633 34.255C478.633 31.4783 479.018 28.97 479.788 26.73C480.582 24.4667 481.713 22.5417 483.183 20.955C484.653 19.3683 486.427 18.1433 488.503 17.28C490.603 16.4167 492.96 15.985 495.573 15.985ZM495.573 47.625C499.073 47.625 501.687 46.4583 503.413 44.125C505.14 41.7683 506.003 38.49 506.003 34.29C506.003 30.0667 505.14 26.7767 503.413 24.42C501.687 22.0633 499.073 20.885 495.573 20.885C493.8 20.885 492.248 21.1883 490.918 21.795C489.612 22.4017 488.515 23.2767 487.628 24.42C486.765 25.5633 486.112 26.975 485.668 28.655C485.248 30.3117 485.038 32.19 485.038 34.29C485.038 38.49 485.902 41.7683 487.628 44.125C489.378 46.4583 492.027 47.625 495.573 47.625ZM549.5 16.545V52H545.79C544.903 52 544.343 51.5683 544.11 50.705L543.62 46.89C542.08 48.5933 540.353 49.97 538.44 51.02C536.527 52.0467 534.333 52.56 531.86 52.56C529.923 52.56 528.208 52.245 526.715 51.615C525.245 50.9617 524.008 50.0517 523.005 48.885C522.002 47.7183 521.243 46.3067 520.73 44.65C520.24 42.9933 519.995 41.1617 519.995 39.155V16.545H526.225V39.155C526.225 41.8383 526.832 43.915 528.045 45.385C529.282 46.855 531.16 47.59 533.68 47.59C535.523 47.59 537.238 47.1583 538.825 46.295C540.435 45.4083 541.917 44.195 543.27 42.655V16.545H549.5ZM622.229 26.94C622.229 30.6967 621.634 34.115 620.444 37.195C619.254 40.275 617.574 42.9117 615.404 45.105C613.234 47.2983 610.62 49.0017 607.564 50.215C604.53 51.405 601.17 52 597.484 52H578.759V1.845H597.484C601.17 1.845 604.53 2.45166 607.564 3.665C610.62 4.855 613.234 6.55833 615.404 8.775C617.574 10.9683 619.254 13.605 620.444 16.685C621.634 19.765 622.229 23.1833 622.229 26.94ZM615.264 26.94C615.264 23.86 614.844 21.1067 614.004 18.68C613.164 16.2533 611.974 14.2 610.434 12.52C608.894 10.84 607.027 9.55667 604.834 8.67C602.64 7.78333 600.19 7.34 597.484 7.34H585.549V46.505H597.484C600.19 46.505 602.64 46.0617 604.834 45.175C607.027 44.2883 608.894 43.0167 610.434 41.36C611.974 39.68 613.164 37.6267 614.004 35.2C614.844 32.7733 615.264 30.02 615.264 26.94ZM635.704 23.65C636.824 21.2233 638.2 19.3333 639.834 17.98C641.467 16.6033 643.462 15.915 645.819 15.915C646.565 15.915 647.277 15.9967 647.954 16.16C648.654 16.3233 649.272 16.58 649.809 16.93L649.354 21.585C649.214 22.1683 648.864 22.46 648.304 22.46C647.977 22.46 647.499 22.39 646.869 22.25C646.239 22.11 645.527 22.04 644.734 22.04C643.614 22.04 642.61 22.2033 641.724 22.53C640.86 22.8567 640.079 23.3467 639.379 24C638.702 24.63 638.084 25.4233 637.524 26.38C636.987 27.3133 636.497 28.3867 636.054 29.6V52H629.789V16.545H633.359C634.035 16.545 634.502 16.6733 634.759 16.93C635.015 17.1867 635.19 17.63 635.284 18.26L635.704 23.65ZM661.867 16.545V52H655.637V16.545H661.867ZM663.197 5.415C663.197 6.02166 663.068 6.59333 662.812 7.13C662.578 7.64333 662.252 8.11 661.832 8.53C661.435 8.92666 660.957 9.24167 660.397 9.475C659.86 9.70833 659.288 9.825 658.682 9.825C658.075 9.825 657.503 9.70833 656.967 9.475C656.453 9.24167 655.998 8.92666 655.602 8.53C655.205 8.11 654.89 7.64333 654.657 7.13C654.423 6.59333 654.307 6.02166 654.307 5.415C654.307 4.80833 654.423 4.23666 654.657 3.7C654.89 3.14 655.205 2.66166 655.602 2.265C655.998 1.845 656.453 1.51833 656.967 1.285C657.503 1.05166 658.075 0.934996 658.682 0.934996C659.288 0.934996 659.86 1.05166 660.397 1.285C660.957 1.51833 661.435 1.845 661.832 2.265C662.252 2.66166 662.578 3.14 662.812 3.7C663.068 4.23666 663.197 4.80833 663.197 5.415ZM702.483 16.545L688.028 52H682.428L667.973 16.545H673.048C673.561 16.545 673.981 16.6733 674.308 16.93C674.635 17.1867 674.856 17.49 674.973 17.84L683.968 40.66C684.248 41.5233 684.493 42.3633 684.703 43.18C684.913 43.9967 685.111 44.8133 685.298 45.63C685.485 44.8133 685.683 43.9967 685.893 43.18C686.103 42.3633 686.36 41.5233 686.663 40.66L695.763 17.84C695.903 17.4667 696.136 17.1633 696.463 16.93C696.79 16.6733 697.175 16.545 697.618 16.545H702.483ZM730.97 30.405C730.97 28.9583 730.76 27.64 730.34 26.45C729.943 25.2367 729.348 24.1983 728.555 23.335C727.785 22.4483 726.84 21.7717 725.72 21.305C724.6 20.815 723.328 20.57 721.905 20.57C718.918 20.57 716.55 21.445 714.8 23.195C713.073 24.9217 712 27.325 711.58 30.405H730.97ZM736.01 47.03C735.24 47.9633 734.318 48.78 733.245 49.48C732.171 50.1567 731.016 50.7167 729.78 51.16C728.566 51.6033 727.306 51.93 726 52.14C724.693 52.3733 723.398 52.49 722.115 52.49C719.665 52.49 717.401 52.0817 715.325 51.265C713.271 50.425 711.486 49.2117 709.97 47.625C708.476 46.015 707.31 44.0317 706.47 41.675C705.63 39.3183 705.21 36.6117 705.21 33.555C705.21 31.0817 705.583 28.7717 706.33 26.625C707.1 24.4783 708.196 22.6233 709.62 21.06C711.043 19.4733 712.781 18.2367 714.835 17.35C716.888 16.44 719.198 15.985 721.765 15.985C723.888 15.985 725.848 16.3467 727.645 17.07C729.465 17.77 731.028 18.7967 732.335 20.15C733.665 21.48 734.703 23.1367 735.45 25.12C736.196 27.08 736.57 29.32 736.57 31.84C736.57 32.82 736.465 33.4733 736.255 33.8C736.045 34.1267 735.648 34.29 735.065 34.29H711.37C711.44 36.53 711.743 38.4783 712.28 40.135C712.84 41.7917 713.61 43.18 714.59 44.3C715.57 45.3967 716.736 46.225 718.09 46.785C719.443 47.3217 720.96 47.59 722.64 47.59C724.203 47.59 725.545 47.415 726.665 47.065C727.808 46.6917 728.788 46.295 729.605 45.875C730.421 45.455 731.098 45.07 731.635 44.72C732.195 44.3467 732.673 44.16 733.07 44.16C733.583 44.16 733.98 44.3583 734.26 44.755L736.01 47.03ZM743.172 48.15C743.172 47.5433 743.277 46.9717 743.487 46.435C743.72 45.8983 744.024 45.4317 744.397 45.035C744.794 44.6383 745.26 44.3233 745.797 44.09C746.334 43.8567 746.905 43.74 747.512 43.74C748.119 43.74 748.69 43.8567 749.227 44.09C749.764 44.3233 750.23 44.6383 750.627 45.035C751.024 45.4317 751.339 45.8983 751.572 46.435C751.805 46.9717 751.922 47.5433 751.922 48.15C751.922 48.78 751.805 49.3633 751.572 49.9C751.339 50.4133 751.024 50.8683 750.627 51.265C750.23 51.6617 749.764 51.965 749.227 52.175C748.69 52.4083 748.119 52.525 747.512 52.525C746.905 52.525 746.334 52.4083 745.797 52.175C745.26 51.965 744.794 51.6617 744.397 51.265C744.024 50.8683 743.72 50.4133 743.487 49.9C743.277 49.3633 743.172 48.78 743.172 48.15Z" fill="white"/>
</svg>
